<?xml version="1.0" encoding="UTF-8"?>
<!DOCTYPE svg PUBLIC "-//W3C//DTD SVG 1.1//EN" "http://www.w3.org/Graphics/SVG/1.1/DTD/svg11.dtd">
<!-- Creator: CorelDRAW -->
<svg xmlns="http://www.w3.org/2000/svg" xml:space="preserve" width="100%" height="100%" style="shape-rendering:geometricPrecision; text-rendering:geometricPrecision; image-rendering:optimizeQuality; fill-rule:evenodd; clip-rule:evenodd"
viewBox="0 0 0.24558 0.25961"
 xmlns:xlink="http://www.w3.org/1999/xlink">
 <defs>
  <style type="text/css">
   <![CDATA[
    .fil0 {fill:white}
    .fil1 {fill:white}
   ]]>
  </style>
 </defs>
 <g id="图层_x0020_1">
  <metadata id="CorelCorpID_0Corel-Layer"/>
  <g id="_184747744">
   <path id="_184748008" class="fil0" d="M0.02669 0.12982l0.08067 0.11084c0.00389,0.00532 0.0027,0.0128 -0.00262,0.01666 -0.00205,0.0015 -0.00449,0.00229 -0.00701,0.00229 -0.00383,1e-005 -0.00743,-0.00181 -0.00966,-0.00492l-0.08579 -0.11783c-0.00304,-0.0042 -0.00304,-0.00986 0,-0.01405l0.0858 -0.11791c0.00387,-0.00531 0.01135,-0.00649 0.01666,-0.00261 0.00532,0.00389 0.00651,0.01134 0.00261,0.01667l-0.08066 0.11086z"/>
  </g>
  <path class="fil1" d="M0.09772 0.25661c0.00182,0 0.00366,-0.00055 0.00525,-0.00171 0.00398,-0.00289 0.00488,-0.00849 0.00197,-0.01247l-0.08196 -0.11261 0.08195 -0.11263c0.00292,-0.00399 0.00202,-0.00957 -0.00196,-0.01248 -0.00397,-0.0029 -0.00957,-0.00202 -0.01247,0.00196l-0.08579 0.1179c-0.00228,0.00314 -0.00228,0.00738 0,0.01053l0.08579 0.11783c0.00173,0.00241 0.00447,0.00369 0.00722,0.00369l0 -1e-005z"/>
  <g id="_184747888">
   <path id="_184748224" class="fil0" d="M0.01193 0.14175c-0.00659,1e-005 -0.01193,-0.00532 -0.01193,-0.01192 0,-0.00659 0.00534,-0.01195 0.01193,-0.01195l0.22171 1e-005c0.00661,0 0.01193,0.00534 0.01194,0.01194 0,0.00661 -0.00534,0.01192 -0.01194,0.01192l-0.22171 0z"/>
  </g>
  <path class="fil1" d="M0.01193 0.13875l0.22171 0c0.00495,0 0.00894,-0.00397 0.00894,-0.00892 -1e-005,-0.00494 -0.00398,-0.00894 -0.00894,-0.00894l-0.22171 -1e-005c-0.00493,0 -0.00893,0.00401 -0.00893,0.00895 0,0.00495 0.004,0.00893 0.00893,0.00893l0 -1e-005z"/>
 </g>
</svg>
