<?xml version="1.0" encoding="UTF-8"?>
<!DOCTYPE svg PUBLIC "-//W3C//DTD SVG 1.1//EN" "http://www.w3.org/Graphics/SVG/1.1/DTD/svg11.dtd">
<!-- Creator: CorelDRAW -->
<svg xmlns="http://www.w3.org/2000/svg" xml:space="preserve" width="100%" height="100%" style="shape-rendering:geometricPrecision; text-rendering:geometricPrecision; image-rendering:optimizeQuality; fill-rule:evenodd; clip-rule:evenodd"
viewBox="0 0 0.58108 0.58107"
 xmlns:xlink="http://www.w3.org/1999/xlink">
 <defs>
  <style type="text/css">
   <![CDATA[
    .fil0 {fill:white}
    .fil1 {fill:white}
   ]]>
  </style>
 </defs>
 <g id="图层_x0020_1">
  <metadata id="CorelCorpID_0Corel-Layer"/>
  <g id="_108203600">
   <path id="_108203432" class="fil0" d="M0.22352 0.41043c-0.00519,0 -0.00939,-0.0042 -0.00939,-0.00939l0 -0.18887c0,-0.00519 0.0042,-0.00939 0.00939,-0.00939 0.00519,0 0.00939,0.0042 0.00939,0.00939l0 0.18887c0,0.00519 -0.0042,0.00939 -0.00939,0.00939z"/>
  </g>
  <path class="fil1" d="M0.22352 0.40743c-0.00353,0 -0.00639,-0.00286 -0.00639,-0.00639l0 -0.18887c0,-0.00354 0.00286,-0.00639 0.00639,-0.00639 0.00353,0 0.00639,0.00285 0.00639,0.00639l0 0.18887c0,0.00353 -0.00286,0.00639 -0.00639,0.00639l0 0z"/>
  <g id="_108206504">
   <path id="_108206648" class="fil0" d="M0.29054 0.58107c-0.1602,0 -0.29054,-0.13032 -0.29054,-0.29053 0,-0.16021 0.13033,-0.29054 0.29054,-0.29054 0.16021,0 0.29054,0.13033 0.29054,0.29054 0,0.16021 -0.13034,0.29053 -0.29054,0.29053zm0 -0.56229c-0.14984,0 -0.27176,0.12192 -0.27176,0.27176 0,0.14985 0.12191,0.27175 0.27176,0.27175 0.14985,0 0.27176,-0.1219 0.27176,-0.27175 0,-0.14984 -0.12192,-0.27176 -0.27176,-0.27176z"/>
  </g>
  <path class="fil1" d="M0.29054 0.01578c-0.1515,0 -0.27476,0.12326 -0.27476,0.27476 0,0.15151 0.12326,0.27475 0.27476,0.27475 0.1515,0 0.27476,-0.12324 0.27476,-0.27475 0,-0.1515 -0.12326,-0.27476 -0.27476,-0.27476l0 0zm0 0.56229c-0.15855,0 -0.28754,-0.12898 -0.28754,-0.28753 0,-0.15855 0.12899,-0.28754 0.28754,-0.28754 0.15855,0 0.28754,0.12899 0.28754,0.28754 0,0.15855 -0.12899,0.28753 -0.28754,0.28753l0 0z"/>
  <g id="_108205784">
   <path id="_108206024" class="fil0" d="M0.32069 0.37937c-0.04013,0 -0.07279,-0.03264 -0.07279,-0.07278 0,-0.04013 0.03267,-0.07277 0.07279,-0.07277 0.04012,0 0.07276,0.03265 0.07276,0.07277 0,0.04012 -0.03263,0.07279 -0.07276,0.07278zm0 -0.12677c-0.02978,0 -0.05401,0.02421 -0.05401,0.05399 0,0.02978 0.02423,0.05401 0.05401,0.05401 0.02977,0 0.05398,-0.02424 0.05398,-0.05401 0,-0.02977 -0.02421,-0.05399 -0.05398,-0.05399z"/>
  </g>
  <path class="fil1" d="M0.32069 0.2496c-0.03144,0 -0.05701,0.02556 -0.05701,0.05699 0,0.03143 0.02557,0.05701 0.05701,0.05701 0.03142,0 0.05698,-0.02558 0.05698,-0.05701 0,-0.03143 -0.02556,-0.05699 -0.05698,-0.05699l0 0zm0 0.12677c-0.03848,0 -0.06979,-0.0313 -0.06979,-0.06978 0,-0.03846 0.03131,-0.06977 0.06979,-0.06977 0.03847,0 0.06976,0.03131 0.06976,0.06977 0,0.03847 -0.03129,0.06979 -0.06976,0.06979l0 -1e-005z"/>
  <g id="_108205112">
   <path id="_108205256" class="fil0" d="M0.25085 0.20203l0.02242 -0.02855c0.00177,-0.00227 0.0045,-0.00361 0.00738,-0.00361l0.08008 0c0.00288,0 0.00561,0.00134 0.00738,0.00361l0.02242 0.02855 0.01846 0c0.01494,0 0.02709,0.01217 0.02709,0.02711l0 0.15496c0,0.01493 -0.01215,0.0271 -0.02709,0.0271l-0.23686 0c-0.01494,0 -0.02711,-0.01215 -0.02711,-0.0271l0 -0.15496c0,-0.01495 0.01216,-0.02711 0.02711,-0.02711l0.07872 0zm0.10531 -0.01338l-0.07094 0 -0.02242 0.02858c-0.00178,0.00226 -0.0045,0.00358 -0.00738,0.00358l-0.08329 0c-0.00459,0 -0.00833,0.00374 -0.00833,0.00833l0 0.15496c0,0.00459 0.00375,0.00832 0.00833,0.00832l0.23686 0c0.00459,0 0.00831,-0.00374 0.00831,-0.00832l0 -0.15496c0,-0.00459 -0.00372,-0.00833 -0.00831,-0.00833l-0.02303 0c-0.00288,0 -0.00561,-0.00132 -0.00739,-0.00359l-0.02241 -0.02857z"/>
  </g>
  <path class="fil1" d="M0.17213 0.21781c-0.00624,0 -0.01133,0.00508 -0.01133,0.01133l0 0.15496c0,0.00624 0.00509,0.01132 0.01133,0.01132l0.23686 0c0.00624,0 0.01131,-0.00508 0.01131,-0.01132l0 -0.15496c0,-0.00625 -0.00507,-0.01133 -0.01131,-0.01133l-0.02303 0c-0.00196,0 -0.00382,-0.0009 -0.00503,-0.00244l-0.02331 -0.02972 -0.07386 0 -0.02331 0.02972c-0.00122,0.00154 -0.00307,0.00244 -0.00503,0.00244l-0.08329 0zm0.23686 0.19039l-0.23686 0c-0.0133,0 -0.02411,-0.01082 -0.02411,-0.0241l0 -0.15496c0,-0.01329 0.01081,-0.02411 0.02411,-0.02411l0.08018 0 0.02332 -0.0297c0.00121,-0.00155 0.00307,-0.00246 0.00502,-0.00246l0.08008 0c0.00195,0 0.00381,0.00091 0.00502,0.00246l0.02332 0.0297 0.01992 0c0.01328,0 0.02409,0.01082 0.02409,0.02411l0 0.15496c0,0.01328 -0.01081,0.0241 -0.02409,0.0241l0 0z"/>
 </g>
</svg>
