<?xml version="1.0" encoding="UTF-8"?>
<!DOCTYPE svg PUBLIC "-//W3C//DTD SVG 1.1//EN" "http://www.w3.org/Graphics/SVG/1.1/DTD/svg11.dtd">
<!-- Creator: CorelDRAW -->
<svg xmlns="http://www.w3.org/2000/svg" xml:space="preserve" width="100%" height="100%" style="shape-rendering:geometricPrecision; text-rendering:geometricPrecision; image-rendering:optimizeQuality; fill-rule:evenodd; clip-rule:evenodd"
viewBox="0 0 0.3792 0.3792"
 xmlns:xlink="http://www.w3.org/1999/xlink">
 <defs>
  <style type="text/css">
   <![CDATA[
    .fil1 {fill:white}
    .fil0 {fill:#E35F13}
   ]]>
  </style>
 </defs>
 <g id="图层_x0020_1">
  <metadata id="CorelCorpID_0Corel-Layer"/>
  <rect class="fil0" width="0.379204" height="0.379204"/>
  <g id="_184955640">
   <path id="_184958832" class="fil1" d="M0.19333 0.19844l-0.11896 0c-0.0049,0 -0.00884,-0.00396 -0.00884,-0.00885 0,-0.00489 0.00395,-0.00884 0.00884,-0.00884l0.11896 0 0 -0.11897c0,-0.00488 0.00396,-0.00883 0.00883,-0.00883 0.0049,-2e-005 0.00886,0.00395 0.00886,0.00884l0 0.11896 0.11897 0c0.00488,0 0.00884,0.00396 0.00884,0.00883 2e-005,0.0049 -0.00395,0.00886 -0.00884,0.00886l-0.11897 0 0 0.11897c0,0.00488 -0.00397,0.00884 -0.00885,0.00884 -0.00488,0 -0.00884,-0.00396 -0.00884,-0.00884l0 -0.11897z"/>
  </g>
  <g id="_184959360">
   <path id="_184958064" class="fil1" d="M0.20218 0.32325c-0.00323,0 -0.00585,-0.00261 -0.00585,-0.00584l0 -0.25563c0,-0.00323 0.00262,-0.00583 0.00584,-0.00583 0.00323,-1e-005 0.00585,0.0026 0.00585,0.00584l0 0.25562c0,0.00322 -0.00262,0.00584 -0.00585,0.00584l1e-005 0z"/>
   <path id="_184957464" class="fil1" d="M0.32999 0.19544l-0.25562 0c-0.00324,0 -0.00584,-0.00261 -0.00584,-0.00585 0,-0.00323 0.0026,-0.00584 0.00584,-0.00584l0.25562 0c0.00323,0 0.00584,0.00262 0.00584,0.00584 1e-005,0.00324 -0.00261,0.00585 -0.00584,0.00585l0 0z"/>
  </g>
 </g>
</svg>
