<?xml version="1.0" encoding="UTF-8"?>
<!DOCTYPE svg PUBLIC "-//W3C//DTD SVG 1.1//EN" "http://www.w3.org/Graphics/SVG/1.1/DTD/svg11.dtd">
<!-- Creator: CorelDRAW -->
<svg xmlns="http://www.w3.org/2000/svg" xml:space="preserve" width="100%" height="100%" style="shape-rendering:geometricPrecision; text-rendering:geometricPrecision; image-rendering:optimizeQuality; fill-rule:evenodd; clip-rule:evenodd"
viewBox="0 0 0.58106 0.58105"
 xmlns:xlink="http://www.w3.org/1999/xlink">
 <defs>
  <style type="text/css">
   <![CDATA[
    .fil0 {fill:white}
    .fil1 {fill:white}
   ]]>
  </style>
 </defs>
 <g id="图层_x0020_1">
  <metadata id="CorelCorpID_0Corel-Layer"/>
  <g id="_108208496">
   <path id="_108208328" class="fil0" d="M0.29053 0.58105c-0.1602,0 -0.29053,-0.13031 -0.29053,-0.29052 0,-0.1602 0.13033,-0.29053 0.29053,-0.29053 0.1602,0 0.29053,0.13033 0.29053,0.29053 0,0.1602 -0.13033,0.29053 -0.29053,0.29052zm0 -0.56227c-0.14984,0 -0.27175,0.12191 -0.27175,0.27175 0,0.14984 0.12191,0.27175 0.27175,0.27175 0.14984,-1e-005 0.27175,-0.12191 0.27175,-0.27175 0,-0.14984 -0.12191,-0.27175 -0.27175,-0.27175z"/>
  </g>
  <path class="fil1" d="M0.29053 0.01578c-0.1515,0 -0.27475,0.12325 -0.27475,0.27475 0,0.15149 0.12325,0.27475 0.27475,0.27475 0.1515,-1e-005 0.27475,-0.12326 0.27475,-0.27475 0,-0.1515 -0.12325,-0.27475 -0.27475,-0.27475l0 0zm0 0.56227c-0.15855,0 -0.28753,-0.12897 -0.28753,-0.28752 0,-0.15854 0.12898,-0.28753 0.28753,-0.28753 0.15854,0 0.28753,0.12899 0.28753,0.28753 0,0.15855 -0.12899,0.28753 -0.28753,0.28753l0 -1e-005z"/>
  <g id="_108192704">
   <path id="_108192872" class="fil0" d="M0.29055 0.44208c-0.00224,0 -0.00438,-0.00079 -0.0061,-0.00223 -0.04179,-0.03559 -0.12153,-0.11688 -0.12153,-0.17326 0,-0.07038 0.05726,-0.12762 0.12763,-0.12762 0.07036,0 0.1276,0.05727 0.1276,0.12762 0,0.05638 -0.07973,0.13767 -0.12152,0.17326 -0.00169,0.00143 -0.00386,0.00223 -0.00608,0.00223zm0 -0.02191c0.03565,-0.03207 0.10882,-0.10567 0.10882,-0.15358 0,-0.06 -0.04882,-0.10884 -0.10882,-0.10884 -0.06001,0 -0.10885,0.04883 -0.10885,0.10884 0,0.04792 0.07316,0.12154 0.10885,0.15358z"/>
  </g>
  <path class="fil1" d="M0.29055 0.15475c-0.06168,0 -0.11185,0.05018 -0.11185,0.11184 0,0.05494 0.09113,0.13918 0.11185,0.15761 0.0207,-0.01845 0.11182,-0.10271 0.11182,-0.15761 0,-0.06166 -0.05017,-0.11184 -0.11182,-0.11184l0 0zm0 0.28433c-0.00149,0 -0.00296,-0.00051 -0.00416,-0.00152 -0.00492,-0.00419 -0.12047,-0.10347 -0.12047,-0.17097 0,-0.06871 0.0559,-0.12462 0.12463,-0.12462 0.06869,0 0.1246,0.05591 0.1246,0.12462 0,0.0675 -0.11554,0.16678 -0.12046,0.17097 -0.00119,0.00101 -0.00268,0.00152 -0.00414,0.00152l0 0z"/>
  <g id="_108193616">
   <path id="_108193304" class="fil0" d="M0.29055 0.32709c-0.03337,0 -0.06052,-0.02712 -0.06052,-0.0605 0,-0.03337 0.02715,-0.0605 0.06052,-0.0605 0.03336,-1e-005 0.0605,0.02715 0.0605,0.0605 0,0.03336 -0.02714,0.06051 -0.0605,0.0605zm0 -0.10222c-0.023,0 -0.04174,0.01871 -0.04174,0.04172 0,0.02301 0.01873,0.04173 0.04174,0.04173 0.023,-1e-005 0.04172,-0.01872 0.04172,-0.04173 0,-0.02299 -0.01873,-0.04172 -0.04172,-0.04172z"/>
  </g>
  <path class="fil1" d="M0.29055 0.22187c-0.02467,0 -0.04474,0.02007 -0.04474,0.04472 0,0.02466 0.02007,0.04473 0.04474,0.04473 0.02465,-1e-005 0.04472,-0.02006 0.04472,-0.04473 0,-0.02465 -0.02007,-0.04472 -0.04472,-0.04472l0 0zm0 0.10222c-0.03172,0 -0.05752,-0.02578 -0.05752,-0.0575 0,-0.03171 0.0258,-0.0575 0.05752,-0.0575 0.0317,-1e-005 0.0575,0.0258 0.0575,0.0575 0,0.03171 -0.0258,0.05751 -0.0575,0.05751l0 -1e-005z"/>
 </g>
</svg>
