<?xml version="1.0" encoding="UTF-8"?>
<!DOCTYPE svg PUBLIC "-//W3C//DTD SVG 1.1//EN" "http://www.w3.org/Graphics/SVG/1.1/DTD/svg11.dtd">
<!-- Creator: CorelDRAW -->
<svg xmlns="http://www.w3.org/2000/svg" xml:space="preserve" width="100%" height="100%" style="shape-rendering:geometricPrecision; text-rendering:geometricPrecision; image-rendering:optimizeQuality; fill-rule:evenodd; clip-rule:evenodd"
viewBox="0 0 0.26975 0.27142"
 xmlns:xlink="http://www.w3.org/1999/xlink">
 <defs>
  <style type="text/css">
   <![CDATA[
    .fil0 {fill:white}
   ]]>
  </style>
 </defs>
 <g id="图层_x0020_1">
  <metadata id="CorelCorpID_0Corel-Layer"/>
  <g id="_356822208">
   <path id="_356822304" class="fil0" d="M0.25764 0.27142l-0.09444 0c-0.0067,0 -0.01211,-0.0054 -0.01211,-0.0121l1e-005 -0.09441c0,-0.0067 0.0054,-0.0121 0.0121,-0.0121l0.09444 0c0.0067,0 0.0121,0.0054 0.0121,0.0121l1e-005 0.0944c0,0.00671 -0.0054,0.01211 -0.01211,0.01211zm-0.15111 0l-0.09443 0c-0.00668,0 -0.0121,-0.00541 -0.0121,-0.0121l0 -0.09441c0,-0.00669 0.00542,-0.0121 0.0121,-0.0121l0.09443 0c0.00668,0 0.0121,0.00541 0.0121,0.0121l0 0.0944c0,0.00669 -0.00541,0.01211 -0.0121,0.01211zm0 -0.15279l-0.09443 0c-0.00667,0 -0.0121,-0.00541 -0.0121,-0.01209l0 -0.09443c0,-0.00668 0.00542,-0.0121 0.0121,-0.0121l0.09443 -1e-005c0.00668,0 0.0121,0.00543 0.0121,0.01211l0 0.09443c0,0.00668 -0.00543,0.0121 -0.0121,0.01209zm0.15111 0l-0.09444 0c-0.00669,0 -0.01211,-0.0054 -0.01211,-0.01209l1e-005 -0.09443c0,-0.00669 0.0054,-0.0121 0.0121,-0.0121l0.09444 -1e-005c0.0067,0 0.0121,0.00542 0.0121,0.01211l1e-005 0.09443c0,0.00669 -0.00542,0.0121 -0.01211,0.01209zm-0.08234 0.12858l0.07024 0 0 -0.0702 -0.07024 0 0 0.0702zm-0.1511 0l0.07023 0 0 -0.0702 -0.07023 0 0 0.0702zm0 -0.15278l0.07023 0 0 -0.07023 -0.07023 0 0 0.07023zm0.1511 0l0.07024 0 0 -0.07023 -0.07024 0 0 0.07023z"/>
  </g>
  <path class="fil0" d="M0.1723 0.25021l0.07624 0 0 -0.0762 -0.07624 0 0 0.0762zm0.08534 0.01821l-0.09444 0c-0.00505,0 -0.00911,-0.00406 -0.00911,-0.0091l1e-005 -0.09441c0,-0.00504 0.00405,-0.0091 0.0091,-0.0091l0.09444 0c0.00505,0 0.0091,0.00406 0.0091,0.0091l1e-005 0.0944c0,0.00505 -0.00406,0.00911 -0.00911,0.00911l0 0zm-0.23644 -0.01821l0.07623 0 0 -0.0762 -0.07623 0 0 0.0762zm0.08533 0.01821l-0.09443 0c-0.00502,0 -0.0091,-0.00406 -0.0091,-0.0091l0 -0.09441c0,-0.00504 0.00408,-0.0091 0.0091,-0.0091l0.09443 0c0.00502,0 0.0091,0.00406 0.0091,0.0091l0 0.0944c0,0.00505 -0.00408,0.00911 -0.0091,0.00911l0 0zm-0.08533 -0.17099l0.07623 0 0 -0.07623 -0.07623 0 0 0.07623zm0.08533 0.0182l-0.09443 0c-0.00502,0 -0.0091,-0.00407 -0.0091,-0.00909l0 -0.09443c0,-0.00503 0.00408,-0.0091 0.0091,-0.0091l0.09443 -1e-005c0.00502,0 0.0091,0.00408 0.0091,0.00911l0 0.09443c0,0.00502 -0.00408,0.0091 -0.0091,0.0091l0 -1e-005zm0.06577 -0.0182l0.07624 0 0 -0.07623 -0.07624 0 0 0.07623zm0.08534 0.0182l-0.09444 0c-0.00505,0 -0.00911,-0.00407 -0.00911,-0.00909l1e-005 -0.09443c0,-0.00503 0.00405,-0.0091 0.0091,-0.0091l0.09444 -1e-005c0.00505,0 0.0091,0.00408 0.0091,0.00911l1e-005 0.09443c0,0.00502 -0.00406,0.0091 -0.00911,0.0091l0 -1e-005z"/>
 </g>
</svg>
