<?xml version="1.0" encoding="UTF-8"?>
<!DOCTYPE svg PUBLIC "-//W3C//DTD SVG 1.1//EN" "http://www.w3.org/Graphics/SVG/1.1/DTD/svg11.dtd">
<!-- Creator: CorelDRAW -->
<svg xmlns="http://www.w3.org/2000/svg" xml:space="preserve" width="100%" height="100%" style="shape-rendering:geometricPrecision; text-rendering:geometricPrecision; image-rendering:optimizeQuality; fill-rule:evenodd; clip-rule:evenodd"
viewBox="0 0 0.24706 0.28674"
 xmlns:xlink="http://www.w3.org/1999/xlink">
 <defs>
  <style type="text/css">
   <![CDATA[
    .str0 {stroke:#DEDEDD;stroke-width:0.018}
    .str1 {stroke:#DEDEDD;stroke-width:0.018;stroke-linecap:round;stroke-linejoin:round}
    .fil0 {fill:none}
    .fil1 {fill:#DEDEDD;fill-rule:nonzero}
   ]]>
  </style>
 </defs>
 <g id="图层_x0020_1">
  <metadata id="CorelCorpID_0Corel-Layer"/>
  <circle class="fil0 str0" cx="0.0673447" cy="0.234275" r="0.0434647"/>
  <g>
   <path class="fil1" d="M0.12002 0.15887l-0.01844 -0.0154 1e-005 -0.00025 4e-005 -0.00023 6e-005 -0.0002 8e-005 -0.00018 0.00011 -0.00016 0.00012 -0.00014 0.00015 -0.00011 0.00016 -9e-005 0.00019 -7e-005 0.0002 -5e-005 0.00023 -3e-005 0.00024 0 0.00025 1e-005 0.00028 4e-005 0.00029 6e-005 0.0003 8e-005 0.00033 0.0001 0.00033 0.00012 0.00035 0.00014 0.00036 0.00016 0.00038 0.00018 0.00038 0.0002 0.0004 0.00022 0.00041 0.00024 0.00042 0.00026 0.00043 0.00028 0.00044 0.0003 0.00044 0.00031 0.00046 0.00034 0.00046 0.00035 0.00047 0.00037 0.00047 0.00039 0.00047 0.0004 0.00047 0.00041 0.00046 0.00042 0.00046 0.00042 0.00044 0.00043 0.00044 0.00044 0.00043 0.00043 0.00042 0.00044 0.0004 0.00045 0.0004 0.00044 0.00039 0.00045 0.00037 0.00044 0.00036 0.00044 0.00035 0.00044 0.00033 0.00044 0.00032 0.00044 0.00031 0.00043 0.00029 0.00042 0.00027 0.00042 0.00026 0.00042 0.00023 0.0004 0.00023 0.0004 0.0002 0.00039 0.00018 0.00038 0.00017 0.00036 0.00014 0.00036 0.00012 0.00034 0.00011 0.00033 8e-005 0.00032 5e-005 0.0003 4e-005 0.00029 1e-005 0.00027zm-0.01844 0.05837l0 -0.07377 0.01844 0.0154 0 0.07377 -0.01844 -0.0154zm0 0l0.01844 0.0154 -1e-005 0.00025 -4e-005 0.00023 -6e-005 0.0002 -8e-005 0.00018 -0.00011 0.00016 -0.00012 0.00014 -0.00015 0.00011 -0.00016 9e-005 -0.00019 7e-005 -0.0002 5e-005 -0.00023 3e-005 -0.00024 0 -0.00025 -1e-005 -0.00028 -4e-005 -0.00029 -6e-005 -0.00031 -8e-005 -0.00032 -0.0001 -0.00033 -0.00012 -0.00035 -0.00014 -0.00036 -0.00016 -0.00038 -0.00018 -0.00038 -0.0002 -0.0004 -0.00022 -0.00041 -0.00024 -0.00042 -0.00026 -0.00043 -0.00028 -0.00044 -0.0003 -0.00044 -0.00031 -0.00046 -0.00034 -0.00046 -0.00035 -0.00047 -0.00037 -0.00047 -0.00039 -0.00047 -0.0004 -0.00047 -0.00041 -0.00046 -0.00042 -0.00046 -0.00042 -0.00044 -0.00043 -0.00044 -0.00044 -0.00043 -0.00043 -0.00042 -0.00044 -0.0004 -0.00045 -0.0004 -0.00044 -0.00039 -0.00045 -0.00037 -0.00044 -0.00036 -0.00044 -0.00035 -0.00044 -0.00033 -0.00044 -0.00032 -0.00044 -0.00031 -0.00043 -0.00029 -0.00042 -0.00027 -0.00042 -0.00026 -0.00042 -0.00023 -0.0004 -0.00023 -0.0004 -0.0002 -0.00039 -0.00018 -0.00038 -0.00017 -0.00036 -0.00014 -0.00036 -0.00012 -0.00034 -0.00011 -0.00034 -8e-005 -0.00031 -5e-005 -0.0003 -4e-005 -0.00029 -1e-005 -0.00027z"/>
  </g>
  <line class="fil0 str1" x1="0.00899" y1="0.01151" x2="0.23807" y2= "0.24059" />
  <g>
   <path class="fil1" d="M0.12066 0.01691l-0.01844 -0.0154 1e-005 -0.00025 4e-005 -0.00023 6e-005 -0.0002 8e-005 -0.00018 0.00011 -0.00016 0.00012 -0.00014 0.00015 -0.00011 0.00016 -9e-005 0.00019 -7e-005 0.0002 -5e-005 0.00023 -3e-005 0.00024 0 0.00025 1e-005 0.00028 4e-005 0.00029 6e-005 0.0003 8e-005 0.00033 0.0001 0.00033 0.00012 0.00035 0.00014 0.00036 0.00016 0.00038 0.00018 0.00038 0.0002 0.0004 0.00022 0.00041 0.00024 0.00042 0.00026 0.00043 0.00028 0.00044 0.0003 0.00044 0.00031 0.00046 0.00034 0.00046 0.00035 0.00047 0.00037 0.00047 0.00039 0.00047 0.0004 0.00047 0.00041 0.00046 0.00042 0.00046 0.00042 0.00044 0.00043 0.00044 0.00044 0.00043 0.00043 0.00042 0.00044 0.0004 0.00045 0.0004 0.00044 0.00039 0.00045 0.00037 0.00044 0.00036 0.00044 0.00035 0.00044 0.00033 0.00044 0.00032 0.00044 0.00031 0.00043 0.00029 0.00042 0.00027 0.00042 0.00026 0.00042 0.00023 0.0004 0.00023 0.0004 0.0002 0.00039 0.00018 0.00038 0.00017 0.00036 0.00014 0.00036 0.00012 0.00034 0.00011 0.00033 8e-005 0.00032 5e-005 0.0003 4e-005 0.00029 1e-005 0.00027zm-0.01844 0.05837l0 -0.07377 0.01844 0.0154 0 0.07377 -0.01844 -0.0154zm0 0l0.01844 0.0154 -1e-005 0.00025 -4e-005 0.00023 -6e-005 0.0002 -8e-005 0.00018 -0.00011 0.00016 -0.00012 0.00014 -0.00015 0.00011 -0.00016 9e-005 -0.00019 7e-005 -0.0002 5e-005 -0.00023 3e-005 -0.00024 0 -0.00025 -1e-005 -0.00028 -4e-005 -0.00029 -6e-005 -0.00031 -8e-005 -0.00032 -0.0001 -0.00033 -0.00012 -0.00035 -0.00014 -0.00036 -0.00016 -0.00038 -0.00018 -0.00038 -0.0002 -0.0004 -0.00022 -0.00041 -0.00024 -0.00042 -0.00026 -0.00043 -0.00028 -0.00044 -0.0003 -0.00044 -0.00031 -0.00046 -0.00034 -0.00046 -0.00035 -0.00047 -0.00037 -0.00047 -0.00039 -0.00047 -0.0004 -0.00047 -0.00041 -0.00046 -0.00042 -0.00046 -0.00042 -0.00044 -0.00043 -0.00044 -0.00044 -0.00043 -0.00043 -0.00042 -0.00044 -0.0004 -0.00045 -0.0004 -0.00044 -0.00039 -0.00045 -0.00037 -0.00044 -0.00036 -0.00044 -0.00035 -0.00044 -0.00033 -0.00044 -0.00032 -0.00044 -0.00031 -0.00043 -0.00029 -0.00042 -0.00027 -0.00042 -0.00026 -0.00042 -0.00023 -0.0004 -0.00023 -0.0004 -0.0002 -0.00039 -0.00018 -0.00038 -0.00017 -0.00036 -0.00014 -0.00036 -0.00012 -0.00034 -0.00011 -0.00034 -8e-005 -0.00031 -5e-005 -0.0003 -4e-005 -0.00029 -1e-005 -0.00027zm0.00987 -0.07058l-0.0013 0.00902 -0.00047 -0.00042 -0.00046 -0.00042 -0.00046 -0.00043 -0.00044 -0.00044 -0.00044 -0.00043 -0.00043 -0.00044 -0.00041 -0.00045 -0.00041 -0.00044 -0.00039 -0.00045 -0.00038 -0.00044 -0.00037 -0.00045 -0.00035 -0.00044 -0.00035 -0.00044 -0.00032 -0.00044 -0.00032 -0.00043 -0.00029 -0.00043 -0.00029 -0.00042 -0.00026 -0.00042 -0.00025 -0.00041 -0.00023 -0.0004 -0.00021 -0.00039 -0.0002 -0.00038 -0.00017 -0.00037 -0.00016 -0.00036 -0.00013 -0.00035 -0.00012 -0.00034 -9e-005 -0.00032 -7e-005 -0.00031 -5e-005 -0.00029 -3e-005 -0.00028 0 -0.00026 2e-005 -0.00024 4e-005 -0.00022 7e-005 -0.0002 9e-005 -0.00017 0.00012 -0.00016 0.00013 -0.00012 0.00015 -0.00011 0.00018 -8e-005 0.00019 -6e-005 0.00021 -4e-005 0.00024 -2e-005 0.00024 1e-005 0.00027 2e-005 0.00028 5e-005 0.0003 7e-005 0.00031 8e-005 0.00033 0.00011 0.00034 0.00013 0.00035 0.00015 0.00037 0.00017 0.00038 0.00019 0.00039 0.00021 0.0004 0.00023 0.00041 0.00024 0.00042 0.00027 0.00043 0.00028 0.00043 0.0003 0.00045 0.00032 0.00045 0.00034 0.00046 0.00035 0.00046 0.00037 0.00047 0.00039 0.00047 0.00041zm0.07793 0.07823l-0.07923 -0.06921 0.0013 -0.00902 0.07923 0.06921 -0.0013 0.00902zm0 0l0.0013 -0.00902 0.00047 0.00042 0.00046 0.00042 0.00046 0.00043 0.00044 0.00044 0.00044 0.00043 0.00043 0.00044 0.00041 0.00045 0.00041 0.00044 0.00039 0.00045 0.00038 0.00044 0.00037 0.00045 0.00035 0.00044 0.00035 0.00044 0.00032 0.00044 0.00032 0.00043 0.00029 0.00043 0.00029 0.00042 0.00026 0.00042 0.00025 0.00041 0.00023 0.0004 0.00021 0.00039 0.0002 0.00038 0.00017 0.00037 0.00016 0.00036 0.00013 0.00035 0.00012 0.00034 9e-005 0.00032 7e-005 0.00031 5e-005 0.00029 3e-005 0.00028 0 0.00026 -2e-005 0.00024 -4e-005 0.00022 -7e-005 0.0002 -9e-005 0.00017 -0.00012 0.00016 -0.00013 0.00012 -0.00015 0.00011 -0.00018 8e-005 -0.00019 6e-005 -0.00021 4e-005 -0.00024 2e-005 -0.00024 -1e-005 -0.00027 -2e-005 -0.00028 -5e-005 -0.0003 -7e-005 -0.00031 -8e-005 -0.00033 -0.00011 -0.00034 -0.00013 -0.00035 -0.00015 -0.00037 -0.00017 -0.00038 -0.00019 -0.00039 -0.00021 -0.0004 -0.00023 -0.00041 -0.00024 -0.00042 -0.00027 -0.00043 -0.00028 -0.00043 -0.0003 -0.00045 -0.00032 -0.00045 -0.00034 -0.00046 -0.00035 -0.00046 -0.00037 -0.00047 -0.00039 -0.00047 -0.00041z"/>
  </g>
 </g>
</svg>
