<?xml version="1.0" encoding="UTF-8"?>
<!DOCTYPE svg PUBLIC "-//W3C//DTD SVG 1.1//EN" "http://www.w3.org/Graphics/SVG/1.1/DTD/svg11.dtd">
<!-- Creator: CorelDRAW -->
<svg xmlns="http://www.w3.org/2000/svg" xml:space="preserve" width="100%" height="100%" style="shape-rendering:geometricPrecision; text-rendering:geometricPrecision; image-rendering:optimizeQuality; fill-rule:evenodd; clip-rule:evenodd"
viewBox="0 0 0.23958 0.25362"
 xmlns:xlink="http://www.w3.org/1999/xlink">
 <defs>
  <style type="text/css">
   <![CDATA[
    .fil0 {fill:#1F1A17}
   ]]>
  </style>
 </defs>
 <g id="图层_x0020_1">
  <metadata id="CorelCorpID_0Corel-Layer"/>
  <g id="_175361936">
   <g>
    <path id="_175361288" class="fil0" d="M0.09472 1e-005c0.00183,0 0.00367,0.00055 0.00526,0.00171 0.00398,0.00289 0.00488,0.00848 0.00197,0.01247l-0.08197 0.11261 0.08196 0.11262c0.00292,0.004 0.00202,0.00958 -0.00196,0.01249 -0.00397,0.0029 -0.00958,0.00202 -0.01247,-0.00197l-0.08579 -0.11789c-0.00229,-0.00315 -0.00229,-0.00738 0,-0.01053l0.08579 -0.11783c0.00173,-0.00242 0.00446,-0.00369 0.00721,-0.00369l0 1e-005z"/>
    <path id="_175360520" class="fil0" d="M0.00894 0.11787l0.22171 0c0.00495,0 0.00893,0.00397 0.00893,0.00892 0,0.00494 -0.00398,0.00894 -0.00893,0.00894l-0.22171 1e-005c-0.00494,0 -0.00893,-0.00401 -0.00893,-0.00895 0,-0.00495 0.004,-0.00893 0.00893,-0.00893l0 1e-005z"/>
   </g>
   <g>
    <g>
     <path id="_175361984" class="fil0" d="M0.00893 0.12287c-0.00218,0 -0.00392,0.00174 -0.00392,0.00392 0,0.00218 0.00175,0.00395 0.00393,0.00395l0.22171 -1e-005c0.00219,0 0.00393,-0.00176 0.00393,-0.00394 0,-0.00219 -0.00174,-0.00392 -0.00393,-0.00392l-0.22172 0z"/>
    </g>
    <g>
     <path id="_175361960" class="fil0" d="M0.09471 0.00501c-0.00125,0 -0.00241,0.00058 -0.00315,0.00161l-0.0858 0.11784c-0.00101,0.0014 -0.00101,0.00325 0,0.00465l0.0858 0.11789c0.00126,0.00175 0.00373,0.00214 0.00547,0.00087 0.00176,-0.00128 0.00216,-0.00374 0.00087,-0.00551l-0.0841 -0.11556 0.08411 -0.11556c0.00128,-0.00175 0.00088,-0.0042 -0.00087,-0.00548 -0.00068,-0.00049 -0.00148,-0.00075 -0.00233,-0.00075z"/>
    </g>
   </g>
  </g>
 </g>
</svg>
