<?xml version="1.0" encoding="UTF-8"?>
<!DOCTYPE svg PUBLIC "-//W3C//DTD SVG 1.1//EN" "http://www.w3.org/Graphics/SVG/1.1/DTD/svg11.dtd">
<!-- Creator: CorelDRAW -->
<svg xmlns="http://www.w3.org/2000/svg" xml:space="preserve" width="100%" height="100%" style="shape-rendering:geometricPrecision; text-rendering:geometricPrecision; image-rendering:optimizeQuality; fill-rule:evenodd; clip-rule:evenodd"
viewBox="0 0 0.58107 0.58107"
 xmlns:xlink="http://www.w3.org/1999/xlink">
 <defs>
  <style type="text/css">
   <![CDATA[
    .fil0 {fill:white}
    .fil1 {fill:white}
   ]]>
  </style>
 </defs>
 <g id="图层_x0020_1">
  <metadata id="CorelCorpID_0Corel-Layer"/>
  <g id="_185067736">
   <g>
    <path id="_185103704" class="fil0" d="M0.29054 0.58107c-0.16021,0 -0.29054,-0.13034 -0.29054,-0.29054 0,-0.16021 0.13033,-0.29053 0.29054,-0.29053 0.1602,0 0.29053,0.13033 0.29053,0.29053 0,0.16019 -0.13033,0.29054 -0.29053,0.29054zm0 -0.56229c-0.14985,0 -0.27176,0.12189 -0.27176,0.27175 0,0.14985 0.12191,0.27176 0.27176,0.27176 0.14985,0 0.27175,-0.12192 0.27175,-0.27176 1e-005,-0.14985 -0.1219,-0.27175 -0.27175,-0.27175z"/>
   </g>
   <path id="_185104304" class="fil1" d="M0.29054 0.01578c-0.15151,0 -0.27476,0.12324 -0.27476,0.27475 0,0.1515 0.12324,0.27476 0.27476,0.27476 0.1515,0 0.27475,-0.12326 0.27475,-0.27476 1e-005,-0.15151 -0.12325,-0.27475 -0.27475,-0.27475l0 0zm0 0.56229c-0.15856,0 -0.28754,-0.129 -0.28754,-0.28754 0,-0.15855 0.12898,-0.28753 0.28754,-0.28753 0.15854,0 0.28753,0.12898 0.28753,0.28753 0,0.15854 -0.12899,0.28754 -0.28753,0.28754l0 0z"/>
   <g>
    <path id="_185104448" class="fil0" d="M0.29054 0.33958c-0.0272,0 -0.04933,-0.02213 -0.04933,-0.04933l0 -0.08945c0,-0.02721 0.02212,-0.04933 0.04933,-0.04933 0.0272,0 0.04932,0.02213 0.04932,0.04933l1e-005 0.08945c0,0.0272 -0.02213,0.04933 -0.04933,0.04933zm0 -0.16933c-0.01684,0 -0.03055,0.01371 -0.03055,0.03055l1e-005 0.08945c0,0.01684 0.01369,0.03055 0.03054,0.03055 0.01684,0 0.03054,-0.01372 0.03054,-0.03055l1e-005 -0.08945c0,-0.01684 -0.01371,-0.03055 -0.03055,-0.03055z"/>
   </g>
   <path id="_185104616" class="fil1" d="M0.29054 0.16725c-0.01851,0 -0.03355,0.01506 -0.03355,0.03355l1e-005 0.08945c0,0.01849 0.01503,0.03355 0.03354,0.03355 0.01849,0 0.03354,-0.01506 0.03354,-0.03355l1e-005 -0.08945c0,-0.0185 -0.01506,-0.03355 -0.03355,-0.03355l0 0zm0 0.16933c-0.02554,0 -0.04633,-0.02078 -0.04633,-0.04633l0 -0.08945c0,-0.02555 0.02078,-0.04633 0.04633,-0.04633 0.02554,0 0.04632,0.02078 0.04632,0.04633l1e-005 0.08945c0,0.02555 -0.02079,0.04633 -0.04633,0.04633l0 0z"/>
   <g>
    <path id="_185105000" class="fil0" d="M0.30013 0.3875l-0.01918 0c-0.04746,0 -0.08606,-0.03861 -0.08606,-0.08607l0 -0.04046c0,-0.00519 0.00421,-0.00938 0.00939,-0.00938 0.00518,0 0.00939,0.00421 0.00939,0.00939l0 0.04045c0,0.0371 0.03018,0.06729 0.06728,0.06729l0.01918 0c0.03709,0 0.06728,-0.0302 0.06728,-0.06729l0 -0.04046c0,-0.00519 0.00421,-0.00938 0.00939,-0.00938 0.00519,0 0.00939,0.0042 0.00939,0.00939l0 0.04045c0,0.04745 -0.0386,0.08607 -0.08606,0.08607z"/>
   </g>
   <path id="_185104352" class="fil1" d="M0.30013 0.3845l-0.01918 0c-0.0458,0 -0.08306,-0.03726 -0.08306,-0.08307l0 -0.04046c0,-0.00352 0.00285,-0.00638 0.00639,-0.00638 0.00352,0 0.00639,0.00286 0.00639,0.00639l0 0.04045c0,0.03875 0.03152,0.07029 0.07028,0.07029l0.01918 0c0.03874,0 0.07028,-0.03154 0.07028,-0.07029l0 -0.04046c0,-0.00352 0.00285,-0.00638 0.00639,-0.00638 0.00353,0 0.00639,0.00286 0.00639,0.00639l0 0.04045c0,0.04581 -0.03727,0.08307 -0.08307,0.08307l1e-005 0z"/>
   <g>
    <path id="_185069512" class="fil0" d="M0.29106 0.42957c-0.00519,0 -0.00939,-0.0042 -0.00939,-0.00939l0 -0.04047c0,-0.00519 0.0042,-0.00939 0.00939,-0.00939 0.00519,0 0.00939,0.0042 0.00939,0.00939l0 0.04047c0,0.00519 -0.0042,0.00939 -0.00939,0.00939z"/>
   </g>
   <path id="_185068552" class="fil1" d="M0.29106 0.42657c-0.00354,0 -0.00639,-0.00286 -0.00639,-0.00639l0 -0.04047c0,-0.00353 0.00285,-0.00639 0.00639,-0.00639 0.00353,0 0.00639,0.00286 0.00639,0.00639l0 0.04047c0,0.00353 -0.00286,0.00639 -0.00639,0.00639l0 0z"/>
   <g>
    <path id="_185069200" class="fil0" d="M0.34645 0.42959l-0.11077 0c-0.00518,0 -0.00939,-0.00419 -0.00939,-0.00938 0,-0.00519 0.0042,-0.00939 0.00939,-0.00939l0.11077 0c0.00519,0 0.00938,0.0042 0.00938,0.00938 1e-005,0.00519 -0.00421,0.0094 -0.00938,0.00939z"/>
   </g>
   <path id="_185068144" class="fil1" d="M0.34645 0.42659l-0.11077 0c-0.00354,0 -0.00639,-0.00286 -0.00639,-0.00638 0,-0.00353 0.00285,-0.00639 0.00639,-0.00639l0.11077 0c0.00353,0 0.00638,0.00286 0.00638,0.00639 1e-005,0.00352 -0.00286,0.00639 -0.00639,0.00639l1e-005 -1e-005z"/>
  </g>
  <g id="_185067616">
   <path id="_185069152" class="fil0" d="M0.24634 0.27465l-0.03195 0c-0.00519,0 -0.00939,-0.0042 -0.00939,-0.00939 0,-0.00519 0.00419,-0.00939 0.00938,-0.00939l0.03196 0c0.00519,0 0.00938,0.0042 0.00938,0.00938 1e-005,0.00518 -0.0042,0.0094 -0.00938,0.0094z"/>
  </g>
  <path class="fil1" d="M0.24634 0.27165l-0.03195 0c-0.00354,0 -0.00639,-0.00287 -0.00639,-0.00639 0,-0.00353 0.00284,-0.00639 0.00638,-0.00639l0.03196 0c0.00353,0 0.00638,0.00286 0.00638,0.00639 1e-005,0.00352 -0.00286,0.00639 -0.00639,0.00639l1e-005 0z"/>
  <g id="_185068024">
   <path id="_185069536" class="fil0" d="M0.36853 0.27465l-0.03194 0c-0.00518,0 -0.0094,-0.00421 -0.0094,-0.00939 0,-0.00519 0.0042,-0.00939 0.00939,-0.00939l0.03195 0c0.00519,0 0.00939,0.0042 0.00939,0.00939 0,0.00518 -0.00421,0.00939 -0.00939,0.00939z"/>
  </g>
  <path class="fil1" d="M0.36853 0.27165l-0.03194 0c-0.00353,0 -0.0064,-0.00287 -0.0064,-0.00639 0,-0.00353 0.00286,-0.00639 0.00639,-0.00639l0.03195 0c0.00353,0 0.00639,0.00286 0.00639,0.00639 0,0.00352 -0.00286,0.00639 -0.00639,0.00639l0 0z"/>
 </g>
</svg>
