<?xml version="1.0" encoding="UTF-8"?>
<!DOCTYPE svg PUBLIC "-//W3C//DTD SVG 1.1//EN" "http://www.w3.org/Graphics/SVG/1.1/DTD/svg11.dtd">
<!-- Creator: CorelDRAW -->
<svg xmlns="http://www.w3.org/2000/svg" xml:space="preserve" width="100%" height="100%" style="shape-rendering:geometricPrecision; text-rendering:geometricPrecision; image-rendering:optimizeQuality; fill-rule:evenodd; clip-rule:evenodd"
viewBox="0 0 0.57507 0.57507"
 xmlns:xlink="http://www.w3.org/1999/xlink">
 <defs>
  <style type="text/css">
   <![CDATA[
    .fil0 {fill:white}
    .fil1 {fill:white}
   ]]>
  </style>
 </defs>
 <g id="图层_x0020_1">
  <metadata id="CorelCorpID_0Corel-Layer"/>
  <g id="_107805144">
   <path id="_107805072" class="fil0" d="M0.30679 0.45916l-0.03852 0c-0.01158,0 -0.02101,-0.00942 -0.02101,-0.021l0 -0.02492c0,-0.00129 -0.00165,-0.00351 -0.00296,-0.00395l-0.0119 -0.00489c-0.00163,-0.00079 -0.0039,-0.00087 -0.00526,0.00049l-0.01764 0.01765c-0.00795,0.00793 -0.02176,0.00794 -0.02969,1e-005l-0.02724 -0.02728c-0.00398,-0.00395 -0.00617,-0.00924 -0.00617,-0.01484 1e-005,-0.00562 0.00219,-0.0109 0.00618,-0.01485l0.0176 -0.01761c0.00085,-0.00087 0.00128,-0.00368 0.00069,-0.00488l-0.00492 -0.01194c-0.0005,-0.00143 -0.00257,-0.00334 -0.00411,-0.00334l-0.02494 0c-0.01156,0 -0.021,-0.00941 -0.021,-0.02098l0 -0.03857c0,-0.01157 0.00943,-0.02099 0.021,-0.02099l0.02495 0c0.00128,0 0.0035,-0.00165 0.00395,-0.00295l0.00488 -0.01191c0.00068,-0.00139 0.00057,-0.0042 -0.00053,-0.00531l-0.01759 -0.01759c-0.00397,-0.00395 -0.00616,-0.00925 -0.00616,-0.01485 1e-005,-0.00562 0.0022,-0.01091 0.00618,-0.01486l0.02722 -0.02725c0.00792,-0.00796 0.02178,-0.00795 0.0297,2e-005l0.0176 0.01759c0.00079,0.00078 0.00379,0.00126 0.00488,0.00072l0.01191 -0.00494c0.00145,-0.00049 0.00337,-0.00254 0.00337,-0.00409l0 -0.02493c0,-0.01159 0.00942,-0.02101 0.02101,-0.02101l0.03852 -1e-005c0.01159,0 0.02103,0.00942 0.02103,0.02102l0 0.02493c0,0.00127 0.00162,0.00348 0.00293,0.00392l0.01192 0.00491c0.00164,0.0008 0.00392,0.00085 0.00528,-0.00052l0.01762 -0.01761c0.00797,-0.00797 0.02173,-0.00795 0.0297,0l0.02723 0.02726c0.00398,0.00395 0.00615,0.00925 0.00615,0.01485 0,0.00561 -0.00219,0.01091 -0.00617,0.01486l-0.01759 0.01761c-0.0009,0.0009 -0.00131,0.00364 -0.0007,0.00487l0.00495 0.01192c0.00049,0.00145 0.00256,0.00335 0.0041,0.00335l0.02494 0c0.01157,0 0.02097,0.00943 0.02097,0.021l1e-005 0.03855c0,0.01156 -0.00941,0.02099 -0.02098,0.02099l-0.02494 0c-0.00127,0 -0.0035,0.0016 -0.00394,0.00292l-0.00493 0.01196c-0.00064,0.00133 -0.00053,0.00423 0.00051,0.00529l0.0176 0.01759c0.004,0.00396 0.00617,0.00924 0.00617,0.01486 0,0.00562 -0.00219,0.01091 -0.00617,0.01487l-0.0272 0.02724c-0.00798,0.00791 -0.02171,0.00795 -0.0297,2e-005l-0.01764 -0.01765c-0.00079,-0.00079 -0.00377,-0.00124 -0.00486,-0.0007l-0.01193 0.00494c-0.00142,0.00049 -0.00333,0.00257 -0.00333,0.0041l0 0.02491c0,0.01159 -0.00944,0.021 -0.02103,0.021zm-0.07641 -0.07626c0.00373,0 0.00744,0.00078 0.01069,0.0024l0.01057 0.00434c0.00961,0.00321 0.01661,0.01355 0.01661,0.02361l2e-005 0.02492 0.03856 -1e-005 0 -0.02492c0,-0.01036 0.00725,-0.02046 0.01697,-0.02373l0.01056 -0.00439c0.00829,-0.00421 0.02188,-0.00157 0.02842,0.00496l0.01767 0.0176 0.02724 -0.02721 -0.01765 -0.01768c-0.00733,-0.00732 -0.00934,-0.01961 -0.00476,-0.02877l0.00435 -0.01059c0.00317,-0.00966 0.01353,-0.01661 0.02361,-0.01661l0.02493 1e-005 1e-005 -0.03857 -0.02494 0c-0.01038,0 -0.02054,-0.00725 -0.02376,-0.01701l-0.00436 -0.01055c-0.00454,-0.00903 -0.00218,-0.02127 0.00489,-0.02839l0.01767 -0.01762 -0.02729 -0.02729 -0.01761 0.01762c-0.0071,0.00706 -0.01993,0.00922 -0.0288,0.00476l-0.01056 -0.00436c-0.00961,-0.00319 -0.01659,-0.01351 -0.01659,-0.02357l-4e-005 -0.02495 -0.03854 2e-005 0 0.02493c0,0.01036 -0.00727,0.0205 -0.017,0.02373l-0.01054 0.00438c-0.00827,0.00422 -0.02192,0.00159 -0.02843,-0.00496l-0.01762 -0.01761 -0.0273 0.02725 0.01767 0.01765c0.00728,0.00734 0.00933,0.01963 0.00474,0.02877l-0.0043 0.01058c-0.00323,0.0096 -0.01356,0.01662 -0.02363,0.01662l-0.02492 0c-0.00149,0.00062 0.00059,-0.00145 -3e-005,1e-005l1e-005 0.03855 0.02495 -1e-005c0.01036,0 0.02047,0.00728 0.02374,0.01699l0.00436 0.01062c0.00454,0.00904 0.00216,0.02127 -0.00493,0.02838l-0.01766 0.01761 0.02729 0.0273 0.01762 -0.01763c0.00469,-0.0047 0.01152,-0.00717 0.01811,-0.00718zm0.05715 -0.03407c-0.03379,0 -0.06127,-0.02752 -0.06127,-0.0613 1e-005,-0.03378 0.02748,-0.06128 0.06127,-0.06128 0.03379,0 0.06129,0.02749 0.06129,0.06128 0,0.03378 -0.0275,0.0613 -0.06129,0.0613zm0 -0.10159c-0.02221,0 -0.04028,0.01809 -0.04028,0.04029 0,0.02221 0.01806,0.04031 0.04028,0.04031 0.02222,-1e-005 0.0403,-0.01808 0.0403,-0.04031 0,-0.02221 -0.01809,-0.04029 -0.0403,-0.04029z"/>
  </g>
  <path class="fil0" d="M0.28753 0.24424c-0.02386,0 -0.04328,0.01943 -0.04328,0.04329 0,0.02388 0.01942,0.04331 0.04328,0.04331 0.02388,-1e-005 0.0433,-0.01943 0.0433,-0.04331 0,-0.02386 -0.01942,-0.04329 -0.0433,-0.04329l0 0zm0 0.10159c-0.03212,0 -0.05827,-0.02616 -0.05827,-0.0583 1e-005,-0.03214 0.02615,-0.05828 0.05827,-0.05828 0.03214,0 0.05829,0.02615 0.05829,0.05828 0,0.03213 -0.02616,0.0583 -0.05829,0.0583l0 0zm-0.05715 0.04007c0.00341,0 0.00669,0.00075 0.0095,0.00215l0.01076 0.00442c0.00812,0.00271 0.01461,0.01172 0.01461,0.02078l0 0.02491c0,0.00165 0.00135,0.00301 0.00302,0.00301l0.03852 0c0.00168,0 0.00304,-0.00135 0.00304,-0.00301l0 -0.02492c0,-0.00906 0.00647,-0.01804 0.01507,-0.02094l0.01077 -0.00448c0.00645,-0.00328 0.01883,-0.00177 0.02499,0.00438l0.01762 0.01763c0.00149,0.00146 0.00276,0.0015 0.00429,-3e-005l0.02721 -0.02726c0.00078,-0.00075 0.00088,-0.00164 0.00088,-0.00211 0,-0.00048 -0.0001,-0.00136 -0.00086,-0.00209l-0.01764 -0.01767c-0.00641,-0.00641 -0.00818,-0.01735 -0.00413,-0.02546l0.00443 -0.01079c0.00266,-0.00811 0.01166,-0.0146 0.02078,-0.0146l0.02494 -1e-005c0.00162,0 0.00299,-0.00137 0.00299,-0.00298l0 -0.03857c0,-0.00162 -0.00137,-0.003 -0.00299,-0.003l-0.02494 0c-0.00911,0 -0.01812,-0.00649 -0.02097,-0.01511l-0.00445 -0.01075c-0.00382,-0.0076 -0.00206,-0.01855 0.00431,-0.02497l0.01765 -0.01764c0.00078,-0.00077 0.00088,-0.00167 0.00088,-0.00213 0,-0.00046 -0.0001,-0.00136 -0.00086,-0.0021l-0.02724 -0.02729c-0.0015,-0.0015 -0.00276,-0.00152 -0.00429,1e-005l-0.01761 0.01761c-0.00618,0.00615 -0.01766,0.00807 -0.02548,0.00414l-0.01076 -0.00444c-0.0081,-0.00269 -0.01459,-0.01167 -0.01459,-0.02074l0 -0.02493c0,-0.00163 -0.00139,-0.00302 -0.00304,-0.00302l-0.03852 -1e-005c-0.00164,0 -0.00302,0.0014 -0.00302,0.00303l0 0.02493c0,0.00907 -0.0065,0.01808 -0.0151,0.02094l-0.01075 0.00447c-0.00646,0.0033 -0.01889,0.00177 -0.025,-0.00438l-0.01763 -0.01761c-0.0015,-0.0015 -0.00274,-0.0015 -0.00423,0l-0.02727 0.02727c-0.00076,0.00075 -0.00088,0.00166 -0.00088,0.00212 0,0.00046 0.00012,0.00136 0.00085,0.0021l0.01766 0.01765c0.00639,0.00644 0.00817,0.01739 0.00412,0.02547l-0.00438 0.01076c-0.00273,0.00812 -0.01174,0.01462 -0.0208,0.01462l-0.02494 0c-0.00163,0 -0.00301,0.00138 -0.00301,0.00301l0 0.03855c0,0.00162 0.00138,0.003 0.00301,0.003l0.02495 -1e-005c0.00905,0 0.01805,0.00649 0.02095,0.01509l0.00445 0.01081c0.00382,0.00761 0.00205,0.01855 -0.00435,0.02497l-0.01763 0.01762c-0.00076,0.00077 -0.00088,0.00166 -0.00088,0.00213 0,0.00047 0.00012,0.00137 0.00085,0.0021l0.02729 0.0273c0.0015,0.00148 0.00275,0.00148 0.00424,0l0.01763 -0.01763c0.00391,-0.00393 0.00987,-0.00629 0.01597,-0.00629l1e-005 -1e-005zm0.07641 0.07026l-0.03852 0c-0.00993,0 -0.01801,-0.00808 -0.01801,-0.018l0 -0.02492c0,-0.00258 -0.00241,-0.00592 -0.00487,-0.00674l-0.01172 -0.00482c-0.00361,-0.00175 -0.00697,-0.00059 -0.00865,0.00109l-0.01764 0.01765c-0.00678,0.00676 -0.01869,0.00677 -0.02545,1e-005l-0.02725 -0.02729c-0.00339,-0.00336 -0.00528,-0.00788 -0.00528,-0.01271 1e-005,-0.00484 0.00189,-0.00935 0.0053,-0.01273l0.01761 -0.01762c0.00176,-0.00179 0.00244,-0.00592 0.00131,-0.00818l-0.00485 -0.01177c-0.00101,-0.00292 -0.00435,-0.00532 -0.00693,-0.00532l-0.02494 0c-0.00992,0 -0.018,-0.00808 -0.018,-0.01798l0 -0.03857c0,-0.00991 0.00808,-0.01799 0.018,-0.01799l0.02495 0c0.00257,0 0.00591,-0.00241 0.00674,-0.00486l0.0048 -0.01172c0.00138,-0.0028 0.00071,-0.00686 -0.00111,-0.00871l-0.0176 -0.0176c-0.00339,-0.00337 -0.00528,-0.00789 -0.00528,-0.01272 1e-005,-0.00483 0.00189,-0.00935 0.0053,-0.01274l0.02723 -0.02725c0.00674,-0.00678 0.01869,-0.00678 0.02545,2e-005l0.01761 0.0176c0.00173,0.00171 0.00606,0.00241 0.00819,0.00134l0.01172 -0.00487c0.00297,-0.001 0.00536,-0.00433 0.00536,-0.00691l0 -0.02493c0,-0.00994 0.00808,-0.01801 0.01801,-0.01801l0.03852 -1e-005c0.00995,0 0.01803,0.00809 0.01803,0.01802l0 0.02493c0,0.00258 0.0024,0.00591 0.00484,0.00671l0.01174 0.00484c0.00355,0.00172 0.00694,0.00062 0.00867,-0.00112l0.01762 -0.01761c0.0068,-0.0068 0.01866,-0.00678 0.02546,0l0.02724 0.02727c0.00339,0.00336 0.00526,0.00789 0.00526,0.01272 0,0.00482 -0.00188,0.00935 -0.00529,0.01274l-0.0176 0.01761c-0.0018,0.00181 -0.00247,0.00588 -0.00132,0.00819l0.00488 0.01173c0.00099,0.00294 0.00433,0.00534 0.00692,0.00534l0.02494 0c0.00991,0 0.01797,0.00808 0.01797,0.018l1e-005 0.03855c0,0.00991 -0.00807,0.01799 -0.01798,0.01799l-0.02494 0c-0.00259,0 -0.00594,0.00239 -0.00673,0.00483l-0.00485 0.01178c-0.00134,0.00274 -0.00068,0.00688 0.0011,0.00868l0.01761 0.0176c0.00341,0.00338 0.00528,0.00789 0.00528,0.01273 0,0.00483 -0.00188,0.00936 -0.00529,0.01275l-0.02719 0.02723c-0.00685,0.00679 -0.01869,0.00676 -0.02547,3e-005l-0.01764 -0.01765c-0.00172,-0.00172 -0.00602,-0.0024 -0.00818,-0.00133l-0.01174 0.00487c-0.00291,0.00099 -0.00532,0.00434 -0.00532,0.00692l0 0.02491c0,0.00992 -0.00808,0.018 -0.01803,0.018l0 0z"/>
  <path class="fil1" d="M0.28753 0.01278c-0.15149,0 -0.27476,0.12326 -0.27476,0.27476 1e-005,0.15151 0.12326,0.27475 0.27476,0.27475 0.15151,0 0.27476,-0.12324 0.27476,-0.27475 0,-0.1515 -0.12325,-0.27476 -0.27476,-0.27476l0 0zm0 0.56229c-0.15853,0 -0.28753,-0.12898 -0.28753,-0.28753 0,-0.15855 0.12899,-0.28754 0.28753,-0.28754 0.15856,0 0.28754,0.12899 0.28754,0.28754 0,0.15855 -0.12898,0.28753 -0.28754,0.28753l0 0z"/>
 </g>
</svg>
