<?xml version="1.0" encoding="UTF-8"?>
<!DOCTYPE svg PUBLIC "-//W3C//DTD SVG 1.1//EN" "http://www.w3.org/Graphics/SVG/1.1/DTD/svg11.dtd">
<!-- Creator: CorelDRAW -->
<svg xmlns="http://www.w3.org/2000/svg" xml:space="preserve" width="100%" height="100%" style="shape-rendering:geometricPrecision; text-rendering:geometricPrecision; image-rendering:optimizeQuality; fill-rule:evenodd; clip-rule:evenodd"
viewBox="0 0 0.28724 0.30172"
 xmlns:xlink="http://www.w3.org/1999/xlink">
 <defs>
  <style type="text/css">
   <![CDATA[
    .fil1 {fill:#DEDEDD}
    .fil0 {fill:white}
   ]]>
  </style>
 </defs>
 <g id="图层_x0020_1">
  <metadata id="CorelCorpID_0Corel-Layer"/>
  <g id="_184759144">
   <path id="_184758376" class="fil0" d="M0.04488 0.19573c-0.02475,0 -0.04488,-0.02013 -0.04488,-0.04488 0,-0.02475 0.02014,-0.04487 0.04488,-0.04487 0.02475,-1e-005 0.04487,0.02012 0.04487,0.04487 1e-005,0.02475 -0.02012,0.04488 -0.04487,0.04488zm0.19749 0.10599c-0.02475,0 -0.04488,-0.02013 -0.04488,-0.04488 0,-0.02474 0.02012,-0.04488 0.04487,-0.04488 0.02476,0 0.04488,0.02012 0.04488,0.04488 1e-005,0.02475 -0.02012,0.04488 -0.04487,0.04488zm0 -0.21197c-0.02476,0 -0.04488,-0.02012 -0.04488,-0.04488 0,-0.02475 0.02012,-0.04487 0.04487,-0.04487 0.02476,-1e-005 0.04488,0.02012 0.04488,0.04487 1e-005,0.02475 -0.02012,0.04488 -0.04487,0.04488zm-0.19749 0.03463c-0.01459,0 -0.02647,0.01188 -0.02647,0.02647 0,0.0146 0.01187,0.02647 0.02647,0.02647 0.0146,0 0.02647,-0.01187 0.02647,-0.02647 0,-0.01459 -0.01188,-0.02647 -0.02647,-0.02647zm0.19749 0.10599c-0.01459,0 -0.02647,0.01188 -0.02647,0.02647 0,0.01459 0.01187,0.02647 0.02646,0.02647 0.0146,0 0.02648,-0.01186 0.02648,-0.02647 0,-0.01459 -0.01188,-0.02647 -0.02647,-0.02647zm0 -0.21196c-0.01459,0 -0.02647,0.01187 -0.02647,0.02646 0,0.01459 0.01187,0.02647 0.02646,0.02647 0.0146,0 0.02648,-0.01186 0.02648,-0.02647 0,-0.0146 -0.01188,-0.02646 -0.02647,-0.02646z"/>
  </g>
  <path class="fil1" d="M0.04488 0.12138c-0.01624,0 -0.02947,0.01322 -0.02947,0.02947 0,0.01626 0.01322,0.02947 0.02947,0.02947 0.01626,0 0.02947,-0.01321 0.02947,-0.02947 0,-0.01625 -0.01322,-0.02947 -0.02947,-0.02947l0 0zm0 0.07135c-0.02309,0 -0.04188,-0.01879 -0.04188,-0.04188 0,-0.02309 0.01879,-0.04187 0.04188,-0.04187 0.0231,-1e-005 0.04187,0.01878 0.04187,0.04187 1e-005,0.02309 -0.01877,0.04188 -0.04187,0.04188l0 0zm0.19749 0.03464c-0.01624,0 -0.02947,0.01322 -0.02947,0.02947 0,0.01626 0.01322,0.02947 0.02946,0.02947 0.01626,0 0.02948,-0.01321 0.02948,-0.02947 0,-0.01625 -0.01322,-0.02947 -0.02948,-0.02947l1e-005 0zm0 0.07135c-0.0231,0 -0.04188,-0.01879 -0.04188,-0.04188 0,-0.02309 0.01878,-0.04188 0.04187,-0.04188 0.02311,0 0.04188,0.01879 0.04188,0.04188 1e-005,0.02309 -0.01877,0.04188 -0.04188,0.04188l1e-005 0zm0 -0.28331c-0.01624,0 -0.02947,0.01321 -0.02947,0.02946 0,0.01626 0.01322,0.02947 0.02946,0.02947 0.01626,0 0.02948,-0.01321 0.02948,-0.02947 0,-0.01625 -0.01322,-0.02946 -0.02948,-0.02946l1e-005 0zm0 0.07134c-0.0231,0 -0.04188,-0.01878 -0.04188,-0.04188 0,-0.02309 0.01878,-0.04187 0.04187,-0.04187 0.02311,-1e-005 0.04188,0.01878 0.04188,0.04187 1e-005,0.02309 -0.01877,0.04188 -0.04188,0.04188l1e-005 0z"/>
  <g id="_184908120">
   <path id="_184907328" class="fil0" d="M0.20565 0.24721c-0.00161,0 -0.00318,-0.00043 -0.00459,-0.00123l-0.12666 -0.07313c-0.0044,-0.00255 -0.00592,-0.00819 -0.00336,-0.01257 0.00251,-0.00441 0.00817,-0.00591 0.01256,-0.00338l0.12667 0.07313c0.00439,0.00256 0.0059,0.00818 0.00335,0.01257 -0.00163,0.00286 -0.00469,0.00461 -0.00797,0.00461z"/>
  </g>
  <path class="fil1" d="M0.20565 0.24421c-0.00105,0 -0.00211,-0.00027 -0.0031,-0.00083l-0.12665 -0.07313c-0.00297,-0.00172 -0.00399,-0.00551 -0.00226,-0.00848 0.0017,-0.00298 0.00551,-0.00397 0.00846,-0.00227l0.12666 0.07312c0.00297,0.00173 0.00399,0.00551 0.00226,0.00849 -0.00113,0.00198 -0.00324,0.0031 -0.00537,0.0031l0 0z"/>
  <g id="_184908240">
   <path id="_184908624" class="fil0" d="M0.07899 0.14603c-0.00328,0 -0.00632,-0.00175 -0.00794,-0.00459 -0.00257,-0.00439 -0.00105,-0.01004 0.00335,-0.01258l0.12665 -0.07312c0.0044,-0.00255 0.01004,-0.00105 0.01256,0.00336 0.00257,0.0044 0.00105,0.01005 -0.00336,0.01258l-0.12664 0.07311c-0.0014,0.00083 -0.00301,0.00126 -0.00462,0.00124z"/>
  </g>
  <path class="fil1" d="M0.079 0.14303c-0.00212,0 -0.00422,-0.0011 -0.00536,-0.0031 -0.00173,-0.00296 -0.00071,-0.00676 0.00226,-0.00847l0.12665 -0.07312c0.00297,-0.00172 0.00676,-0.00072 0.00847,0.00227 0.00173,0.00296 0.00071,0.00676 -0.00227,0.00847l-0.12665 0.07312c-0.00097,0.00057 -0.00205,0.00084 -0.0031,0.00084l0 -1e-005z"/>
 </g>
</svg>
