<?xml version="1.0" encoding="UTF-8"?>
<!DOCTYPE svg PUBLIC "-//W3C//DTD SVG 1.1//EN" "http://www.w3.org/Graphics/SVG/1.1/DTD/svg11.dtd">
<!-- Creator: CorelDRAW X7 -->
<svg xmlns="http://www.w3.org/2000/svg" xml:space="preserve" width="100%" height="100%" version="1.1" style="shape-rendering:geometricPrecision; text-rendering:geometricPrecision; image-rendering:optimizeQuality; fill-rule:evenodd; clip-rule:evenodd"
viewBox="0 0 21000 22059"
 xmlns:xlink="http://www.w3.org/1999/xlink">
 <defs>
  <style type="text/css">
   <![CDATA[
    .fil0 {fill:#B39B77}
   ]]>
  </style>
 </defs>
 <g id="图层_x0020_1">
  <metadata id="CorelCorpID_0Corel-Layer"/>
  <g id="_914609856">
   <g id="_184759144">
    <path id="_184758376" class="fil0" d="M3281 14310c-1809,0 -3281,-1472 -3281,-3281 0,-1810 1472,-3281 3281,-3281 1810,-1 3281,1471 3281,3281 0,1809 -1471,3281 -3281,3281zm14439 7749c-1810,0 -3282,-1472 -3282,-3282 0,-1808 1471,-3281 3281,-3281 1810,0 3281,1471 3281,3281 1,1810 -1471,3282 -3280,3282zm0 -15497c-1811,0 -3282,-1471 -3282,-3282 0,-1809 1471,-3280 3281,-3280 1810,-1 3281,1471 3281,3280 1,1810 -1471,3282 -3280,3282zm-14439 2531c-1067,0 -1935,869 -1935,1936 0,1067 868,1935 1935,1935 1068,0 1935,-868 1935,-1935 0,-1067 -868,-1936 -1935,-1936zm14439 7749c-1067,0 -1936,869 -1936,1935 0,1067 868,1936 1935,1936 1067,0 1936,-867 1936,-1936 0,-1066 -869,-1935 -1935,-1935zm0 -15496c-1067,0 -1936,868 -1936,1934 0,1067 868,1936 1935,1936 1067,0 1936,-867 1936,-1936 0,-1067 -869,-1934 -1935,-1934z"/>
   </g>
   <path class="fil0" d="M3281 8874c-1187,0 -2154,967 -2154,2155 0,1188 966,2154 2154,2154 1189,0 2155,-966 2155,-2154 0,-1188 -967,-2155 -2155,-2155l0 0zm0 5216c-1688,0 -3062,-1373 -3062,-3061 0,-1688 1374,-3061 3062,-3061 1689,-1 3061,1373 3061,3061 1,1688 -1372,3061 -3061,3061l0 0zm14439 2533c-1188,0 -2155,966 -2155,2154 0,1189 967,2155 2154,2155 1189,0 2155,-966 2155,-2155 0,-1188 -966,-2154 -2155,-2154l1 0zm0 5216c-1689,0 -3062,-1373 -3062,-3062 0,-1688 1373,-3061 3061,-3061 1689,0 3062,1373 3062,3061 0,1689 -1373,3062 -3062,3062l1 0zm0 -20712c-1188,0 -2155,965 -2155,2153 0,1189 967,2155 2154,2155 1189,0 2155,-966 2155,-2155 0,-1188 -966,-2153 -2155,-2153l1 0zm0 5215c-1689,0 -3062,-1373 -3062,-3062 0,-1688 1373,-3061 3061,-3061 1689,0 3062,1373 3062,3061 0,1689 -1373,3062 -3062,3062l1 0z"/>
   <g id="_184908120">
    <path id="_184907328" class="fil0" d="M15035 18073c-118,0 -233,-31 -336,-89l-9260 -5347c-321,-186 -432,-599 -245,-919 183,-322 597,-432 918,-247l9261 5346c321,188 431,598 245,919 -119,209 -343,337 -583,337l0 0z"/>
   </g>
   <path class="fil0" d="M15035 17854c-77,0 -154,-20 -227,-61l-9259 -5346c-217,-126 -292,-403 -165,-620 124,-218 403,-290 618,-166l9260 5346c217,126 292,403 166,620 -83,145 -237,227 -393,227l0 0z"/>
   <g id="_184908240">
    <path id="_184908624" class="fil0" d="M5775 10676c-240,0 -462,-128 -581,-335 -187,-321 -76,-734 245,-920l9260 -5346c321,-186 734,-77 918,246 188,321 77,735 -246,920l-9258 5345c-103,60 -220,92 -338,90l0 0z"/>
   </g>
   <path class="fil0" d="M5776 10457c-155,0 -309,-81 -392,-227 -127,-216 -52,-494 165,-619l9259 -5346c217,-126 495,-52 620,166 126,217 51,494 -166,619l-9260 5346c-71,42 -150,62 -226,62l0 -1z"/>
  </g>
 </g>
</svg>
