<?xml version="1.0" encoding="UTF-8"?>
<!DOCTYPE svg PUBLIC "-//W3C//DTD SVG 1.1//EN" "http://www.w3.org/Graphics/SVG/1.1/DTD/svg11.dtd">
<!-- Creator: CorelDRAW -->
<svg xmlns="http://www.w3.org/2000/svg" xml:space="preserve" width="100%" height="100%" style="shape-rendering:geometricPrecision; text-rendering:geometricPrecision; image-rendering:optimizeQuality; fill-rule:evenodd; clip-rule:evenodd"
viewBox="0 0 0.58707 0.58707"
 xmlns:xlink="http://www.w3.org/1999/xlink">
 <defs>
  <style type="text/css">
   <![CDATA[
    .fil0 {fill:white}
    .fil1 {fill:white}
   ]]>
  </style>
 </defs>
 <g id="图层_x0020_1">
  <metadata id="CorelCorpID_0Corel-Layer"/>
  <g id="_108195344">
   <path id="_108194792" class="fil0" d="M0.29353 0.58707c-0.16187,0 -0.29353,-0.13167 -0.29353,-0.29354 0,-0.16186 0.13167,-0.29353 0.29353,-0.29353 0.16186,-1e-005 0.29354,0.13167 0.29354,0.29353 0,0.16187 -0.13167,0.29354 -0.29354,0.29354zm0 -0.5623c-0.14819,0 -0.26875,0.12057 -0.26875,0.26876 0,0.14819 0.12056,0.26876 0.26875,0.26876 0.14819,0 0.26876,-0.12057 0.26876,-0.26876 0,-0.14819 -0.12057,-0.26876 -0.26876,-0.26876z"/>
   <path id="_108194768" class="fil0" d="M0.29353 0.58407c-0.16021,0 -0.29053,-0.13033 -0.29053,-0.29054 0,-0.1602 0.13033,-0.29053 0.29053,-0.29053 0.16021,-1e-005 0.29054,0.13033 0.29054,0.29053 0,0.16022 -0.13032,0.29054 -0.29054,0.29054zm0 -0.5623c-0.14985,0 -0.27175,0.12192 -0.27175,0.27176 0,0.14985 0.1219,0.27176 0.27175,0.27176 0.14985,0 0.27176,-0.12191 0.27176,-0.27176 0,-0.14984 -0.12192,-0.27176 -0.27176,-0.27176z"/>
  </g>
  <path class="fil1" d="M0.29353 0.01877c-0.1515,0 -0.27475,0.12326 -0.27475,0.27476 0,0.15151 0.12325,0.27476 0.27475,0.27476 0.1515,0 0.27476,-0.12325 0.27476,-0.27476 0,-0.1515 -0.12326,-0.27476 -0.27476,-0.27476l0 0zm0 0.5623c-0.15855,0 -0.28753,-0.12898 -0.28753,-0.28754 0,-0.15854 0.12898,-0.28753 0.28753,-0.28753 0.15856,-1e-005 0.28754,0.12899 0.28754,0.28753 0,0.15856 -0.12898,0.28754 -0.28754,0.28754l0 0z"/>
  <g id="_108194888">
   <path id="_108194960" class="fil0" d="M0.43199 0.41829l-0.27691 0c-0.00519,0 -0.00939,-0.0042 -0.00939,-0.00939l0 -0.23073c0,-0.00519 0.0042,-0.00939 0.00939,-0.00939l0.27691 0c0.00518,0 0.00939,0.00421 0.00939,0.00939l0 0.23073c0,0.00519 -0.0042,0.00939 -0.00939,0.00939zm-0.26752 -0.01878l0.25813 0 0 -0.21195 -0.25813 0 0 0.21195z"/>
  </g>
  <path class="fil1" d="M0.16147 0.40251l0.26413 0 0 -0.21795 -0.26413 0 0 0.21795zm0.27052 0.01278l-0.27691 0c-0.00353,0 -0.00639,-0.00286 -0.00639,-0.00639l0 -0.23073c0,-0.00353 0.00286,-0.00639 0.00639,-0.00639l0.27691 0c0.00353,0 0.00639,0.00287 0.00639,0.00639l0 0.23073c0,0.00353 -0.00286,0.00639 -0.00639,0.00639l0 0z"/>
  <g id="_108196040">
   <path id="_108195848" class="fil0" d="M0.3643 0.32409l-0.06379 0.04252 -0.08156 -0.08773 -0.05711 0.05894c-0.0036,0.00373 -0.00958,0.00385 -0.01327,0.00023 -0.00375,-0.0036 -0.00384,-0.00955 -0.00023,-0.01328l0.07087 -0.07318 0.08418 0.09053 0.06204 -0.04135 0.07206 0.05872c0.004,0.00328 0.00461,0.00918 0.00135,0.0132 -0.00178,0.00221 -0.00446,0.00347 -0.0073,0.00347 -0.00216,0 -0.00424,-0.00074 -0.00592,-0.0021l-0.06132 -0.04997z"/>
  </g>
  <path class="fil1" d="M0.43154 0.37316c-0.00141,0 -0.00284,-0.00047 -0.00403,-0.00143l-0.06303 -0.05136 -0.06351 0.04233 -0.08198 -0.08818 -0.05931 0.06122c-0.00246,0.00255 -0.00653,0.0026 -0.00903,0.00015 -0.00255,-0.00245 -0.00261,-0.0065 -0.00016,-0.00903l0.06868 -0.07091 0.08376 0.09008 0.06232 -0.04154 0.07034 0.05732c0.00273,0.00224 0.00314,0.00625 0.00092,0.00899 -0.00126,0.00156 -0.00311,0.00236 -0.00497,0.00236l0 0z"/>
  <g id="_108199328">
   <path id="_108202280" class="fil0" d="M0.30877 0.28877c-0.02339,0 -0.04244,-0.01903 -0.04244,-0.04243 0,-0.0234 0.01905,-0.04241 0.04244,-0.04241 0.02338,0 0.04241,0.01903 0.04241,0.04241 0,0.02338 -0.01903,0.04243 -0.04241,0.04243zm0 -0.06607c-0.01304,0 -0.02366,0.01059 -0.02366,0.02364 0,0.01304 0.01062,0.02365 0.02366,0.02365 0.01303,0 0.02363,-0.01062 0.02363,-0.02365 0,-0.01303 -0.0106,-0.02363 -0.02363,-0.02364z"/>
  </g>
  <path class="fil1" d="M0.30877 0.2197c-0.01471,0 -0.02666,0.01195 -0.02666,0.02664 0,0.01469 0.01195,0.02665 0.02666,0.02665 0.01468,0 0.02663,-0.01196 0.02663,-0.02665 0,-0.01469 -0.01195,-0.02663 -0.02663,-0.02663l0 -1e-005zm0 0.06607c-0.02175,0 -0.03944,-0.0177 -0.03944,-0.03943 0,-0.02173 0.01769,-0.03941 0.03944,-0.03941 0.02172,0 0.03941,0.01768 0.03941,0.03941 0,0.02173 -0.01769,0.03943 -0.03941,0.03943l0 0z"/>
 </g>
</svg>
