<?xml version="1.0" encoding="UTF-8"?>
<!DOCTYPE svg PUBLIC "-//W3C//DTD SVG 1.1//EN" "http://www.w3.org/Graphics/SVG/1.1/DTD/svg11.dtd">
<!-- Creator: CorelDRAW X7 -->
<svg xmlns="http://www.w3.org/2000/svg" xml:space="preserve" width="100%" height="100%" version="1.1" style="shape-rendering:geometricPrecision; text-rendering:geometricPrecision; image-rendering:optimizeQuality; fill-rule:evenodd; clip-rule:evenodd"
viewBox="0 0 21000 22199"
 xmlns:xlink="http://www.w3.org/1999/xlink">
 <defs>
  <style type="text/css">
   <![CDATA[
    .fil0 {fill:#B39B77}
   ]]>
  </style>
 </defs>
 <g id="图层_x0020_1">
  <metadata id="CorelCorpID_0Corel-Layer"/>
  <g id="_917474992">
   <g id="_184747744">
    <path id="_184748008" class="fil0" d="M2282 11101l6899 9478c332,455 230,1095 -224,1425 -176,128 -384,195 -600,195 -327,1 -635,-154 -826,-420l-7336 -10076c-260,-359 -260,-843 0,-1202l7337 -10082c331,-454 970,-555 1425,-223 454,332 556,969 223,1425l-6898 9480 0 0z"/>
   </g>
   <path class="fil0" d="M8356 21943c156,0 313,-47 449,-146 341,-247 417,-726 169,-1067l-7009 -9629 7008 -9631c249,-342 173,-819 -168,-1068 -339,-247 -818,-172 -1066,168l-7336 10082c-195,268 -195,631 0,900l7336 10076c148,206 382,316 617,316l0 -1 0 0z"/>
   <g id="_184747888">
    <path id="_184748224" class="fil0" d="M1020 12121c-563,1 -1020,-455 -1020,-1019 0,-564 457,-1022 1020,-1022l18959 1c565,0 1020,456 1021,1021 0,565 -457,1019 -1021,1019l-18959 0z"/>
   </g>
   <path class="fil0" d="M1020 11864l18959 0c423,0 764,-339 764,-762 0,-423 -340,-765 -764,-765l-18959 -1c-421,0 -763,343 -763,766 0,423 342,763 763,763l0 -1 0 0z"/>
  </g>
 </g>
</svg>
