<?xml version="1.0" encoding="UTF-8"?>
<!DOCTYPE svg PUBLIC "-//W3C//DTD SVG 1.1//EN" "http://www.w3.org/Graphics/SVG/1.1/DTD/svg11.dtd">
<!-- Creator: CorelDRAW -->
<svg xmlns="http://www.w3.org/2000/svg" xml:space="preserve" width="100%" height="100%" style="shape-rendering:geometricPrecision; text-rendering:geometricPrecision; image-rendering:optimizeQuality; fill-rule:evenodd; clip-rule:evenodd"
viewBox="0 0 0.57507 0.57507"
 xmlns:xlink="http://www.w3.org/1999/xlink">
 <defs>
  <style type="text/css">
   <![CDATA[
    .fil0 {fill:white}
    .fil1 {fill:white}
   ]]>
  </style>
 </defs>
 <g id="图层_x0020_1">
  <metadata id="CorelCorpID_0Corel-Layer"/>
  <g id="_107805816">
   <g>
    <path id="_107805336" class="fil0" d="M0.32492 0.35199l0 0.06795c0,0.00522 -0.00423,0.00945 -0.00945,0.00945 -0.00522,0 -0.00945,-0.00423 -0.00945,-0.00945l0 -0.0774c0,-0.00522 0.00423,-0.00944 0.00945,-0.00944l0.0774 0c0.00522,0 0.00944,0.00423 0.00944,0.00944 1e-005,0.00521 -0.00423,0.00946 -0.00944,0.00946l-0.06795 -1e-005z"/>
   </g>
   <path id="_107805528" class="fil0" d="M0.31547 0.42639c-0.00356,0 -0.00645,-0.00289 -0.00645,-0.00645l0 -0.0774c0,-0.00357 0.00289,-0.00644 0.00645,-0.00644l0.0774 0c0.00355,0 0.00644,0.00287 0.00644,0.00645 1e-005,0.00355 -0.00289,0.00645 -0.00644,0.00645l-0.07095 -1e-005 0 0.07095c0,0.00356 -0.00289,0.00645 -0.00645,0.00645l0 0z"/>
   <g>
    <path id="_107805600" class="fil0" d="M0.31547 0.42939l-0.13327 0c-0.00522,0 -0.00945,-0.00423 -0.00945,-0.00945l0 -0.26482c0,-0.00522 0.00423,-0.00945 0.00945,-0.00945l0.21067 0c0.00521,0 0.00944,0.00424 0.00944,0.00945l1e-005 0.18742c0,0.0025 -0.001,0.0049 -0.00277,0.00668l-0.07739 0.07739c-0.00178,0.00178 -0.00417,0.00278 -0.00669,0.00278zm-0.12382 -0.0189l0.11991 0 0.07186 -0.07185 0 -0.17407 -0.19177 0 0 0.24592zm0.10986 -0.197l-0.07578 0c-0.00522,0 -0.00945,-0.00422 -0.00945,-0.00944 0,-0.00522 0.00423,-0.00945 0.00945,-0.00945l0.07578 0c0.00522,0 0.00945,0.00423 0.00945,0.00945 0,0.00523 -0.00423,0.00945 -0.00945,0.00944zm0.04999 0.0312l-0.12577 0c-0.00522,0 -0.00945,-0.00423 -0.00945,-0.00945 0,-0.00522 0.00423,-0.00945 0.00945,-0.00945l0.12577 0c0.00522,0 0.00945,0.00423 0.00945,0.00945 0,0.00522 -0.00423,0.00945 -0.00945,0.00945zm0 0.03116l-0.12577 0c-0.00522,0 -0.00945,-0.00423 -0.00945,-0.00945 0,-0.00522 0.00423,-0.00945 0.00945,-0.00945l0.12577 0c0.00522,0 0.00945,0.00423 0.00945,0.00945 0,0.00522 -0.00423,0.00945 -0.00945,0.00945zm-0.07311 0.03119l-0.05266 0c-0.00523,0 -0.00945,-0.00422 -0.00945,-0.00945 0,-0.00522 0.00423,-0.00945 0.00945,-0.00945l0.05266 0c0.00521,0 0.00944,0.00424 0.00944,0.00944 1e-005,0.00522 -0.00422,0.00946 -0.00944,0.00946z"/>
   </g>
   <path id="_107805792" class="fil0" d="M0.18865 0.41349l0.12415 0 0.07362 -0.07361 0 -0.17831 -0.19777 0 0 0.25192zm0.12682 0.0129l-0.13327 0c-0.00356,0 -0.00645,-0.00289 -0.00645,-0.00645l0 -0.26482c0,-0.00356 0.00289,-0.00645 0.00645,-0.00645l0.21067 0c0.00355,0 0.00644,0.00289 0.00644,0.00645l1e-005 0.18742c0,0.00171 -0.00069,0.00335 -0.00189,0.00456l-0.07739 0.07739c-0.00122,0.00122 -0.00285,0.0019 -0.00457,0.0019l0 0zm-0.01396 -0.2159l-0.07578 0c-0.00356,0 -0.00645,-0.00287 -0.00645,-0.00644 0,-0.00356 0.00289,-0.00645 0.00645,-0.00645l0.07578 0c0.00357,0 0.00645,0.00289 0.00645,0.00645 0,0.00357 -0.00288,0.00645 -0.00645,0.00645l0 -1e-005zm0.04999 0.0312l-0.12577 0c-0.00356,0 -0.00645,-0.00288 -0.00645,-0.00645 0,-0.00356 0.00289,-0.00645 0.00645,-0.00645l0.12577 0c0.00356,0 0.00645,0.00289 0.00645,0.00645 0,0.00357 -0.00289,0.00645 -0.00645,0.00645zm0 0.03116l-0.12577 0c-0.00356,0 -0.00645,-0.00288 -0.00645,-0.00645 0,-0.00356 0.00289,-0.00645 0.00645,-0.00645l0.12577 0c0.00356,0 0.00645,0.00289 0.00645,0.00645 0,0.00357 -0.00289,0.00645 -0.00645,0.00645l0 0zm-0.07311 0.03119l-0.05266 0c-0.00356,0 -0.00645,-0.00287 -0.00645,-0.00645 0,-0.00356 0.00289,-0.00645 0.00645,-0.00645l0.05266 0c0.00355,0 0.00644,0.00289 0.00644,0.00645 1e-005,0.00357 -0.00289,0.00645 -0.00644,0.00645l0 0z"/>
  </g>
  <path class="fil1" d="M0.28753 0.01278c-0.15149,0 -0.27476,0.12326 -0.27476,0.27476 1e-005,0.15151 0.12326,0.27475 0.27476,0.27475 0.15151,0 0.27476,-0.12324 0.27476,-0.27475 0,-0.1515 -0.12325,-0.27476 -0.27476,-0.27476l0 0zm0 0.56229c-0.15853,0 -0.28753,-0.12898 -0.28753,-0.28753 0,-0.15855 0.12899,-0.28754 0.28753,-0.28754 0.15856,0 0.28754,0.12899 0.28754,0.28754 0,0.15855 -0.12898,0.28753 -0.28754,0.28753l0 0z"/>
 </g>
</svg>
