<?xml version="1.0" encoding="UTF-8"?>
<!DOCTYPE svg PUBLIC "-//W3C//DTD SVG 1.1//EN" "http://www.w3.org/Graphics/SVG/1.1/DTD/svg11.dtd">
<!-- Creator: CorelDRAW -->
<svg xmlns="http://www.w3.org/2000/svg" xml:space="preserve" width="100%" height="100%" style="shape-rendering:geometricPrecision; text-rendering:geometricPrecision; image-rendering:optimizeQuality; fill-rule:evenodd; clip-rule:evenodd"
viewBox="0 0 0.58107 0.58107"
 xmlns:xlink="http://www.w3.org/1999/xlink">
 <defs>
  <style type="text/css">
   <![CDATA[
    .fil0 {fill:white}
    .fil1 {fill:white}
   ]]>
  </style>
 </defs>
 <g id="图层_x0020_1">
  <metadata id="CorelCorpID_0Corel-Layer"/>
  <g id="_108204056">
   <path id="_108204176" class="fil0" d="M0.29053 0.58107c-0.16019,0 -0.29053,-0.13033 -0.29053,-0.29053 0,-0.1602 0.13033,-0.29054 0.29053,-0.29054 0.16021,0 0.29054,0.13033 0.29054,0.29054 0,0.16021 -0.13033,0.29053 -0.29054,0.29053zm0 -0.56229c-0.14984,0 -0.27176,0.12192 -0.27176,0.27176 1e-005,0.14985 0.12191,0.27175 0.27176,0.27175 0.14985,0 0.27176,-0.12189 0.27176,-0.27175 0,-0.14985 -0.12191,-0.27176 -0.27176,-0.27176z"/>
  </g>
  <path class="fil1" d="M0.29053 0.01578c-0.15149,0 -0.27476,0.12326 -0.27476,0.27476 1e-005,0.15151 0.12326,0.27475 0.27476,0.27475 0.15151,0 0.27476,-0.12324 0.27476,-0.27475 0,-0.1515 -0.12325,-0.27476 -0.27476,-0.27476l0 0zm0 0.56229c-0.15853,0 -0.28753,-0.12898 -0.28753,-0.28753 0,-0.15855 0.12899,-0.28754 0.28753,-0.28754 0.15856,0 0.28754,0.12899 0.28754,0.28754 0,0.15855 -0.12898,0.28753 -0.28754,0.28753l0 0z"/>
  <g id="_108207344">
   <path id="_108207224" class="fil0" d="M0.29053 0.39417c-0.06432,0 -0.12312,-0.03896 -0.14329,-0.10073 -0.00059,-0.00187 -0.0006,-0.00392 1e-005,-0.00581 0.02017,-0.06175 0.07895,-0.10073 0.14328,-0.10073 0.06433,0 0.12313,0.03896 0.14331,0.10074 0.0006,0.00188 0.00059,0.00393 -1e-005,0.00582 -0.02016,0.06177 -0.07897,0.10071 -0.1433,0.10071zm-0.12443 -0.10363c0.01855,0.05241 0.06935,0.08485 0.12443,0.08485 0.05508,0 0.10589,-0.03243 0.12445,-0.08485 -0.01856,-0.05241 -0.06936,-0.08486 -0.12445,-0.08486 -0.05507,0 -0.10587,0.03246 -0.12443,0.08486z"/>
  </g>
  <path class="fil1" d="M0.16292 0.29053c0.01815,0.05266 0.06915,0.08786 0.12761,0.08786 0.05848,0 0.10948,-0.0352 0.12763,-0.08785 -0.01816,-0.05265 -0.06916,-0.08786 -0.12763,-0.08786 -0.05845,0 -0.10945,0.03522 -0.12761,0.08786l0 -1e-005zm0.12761 0.10064c-0.06473,0 -0.12117,-0.03964 -0.14043,-0.09864 -0.00041,-0.00129 -0.00041,-0.00269 0,-0.00397 0.01928,-0.05901 0.0757,-0.09866 0.14043,-0.09866 0.06475,0 0.12118,0.03965 0.14045,0.09866 0.00041,0.00128 0.00041,0.00268 0,0.00397 -0.01926,0.059 -0.07569,0.09864 -0.14045,0.09864l0 0z"/>
  <g id="_108208736">
   <path id="_108207872" class="fil0" d="M0.22468 0.29053c1e-005,-0.00517 0.00421,-0.00938 0.00938,-0.00938 0.0052,-1e-005 0.0094,0.0042 0.0094,0.00939 1e-005,0.02595 0.02112,0.04706 0.04707,0.04706 0.02596,0 0.04704,-0.02111 0.04704,-0.04706 1e-005,-0.02595 -0.02109,-0.04705 -0.04704,-0.04705 -0.00519,0 -0.00939,-0.0042 -0.00939,-0.00939 0,-0.00518 0.00421,-0.00939 0.00939,-0.00939 0.0363,0 0.06583,0.02953 0.06583,0.06583 0,0.0363 -0.02952,0.06584 -0.06583,0.06584 -0.0363,0 -0.06585,-0.02953 -0.06585,-0.06585z"/>
  </g>
  <path class="fil1" d="M0.29053 0.35338c-0.03465,0 -0.06285,-0.02819 -0.06285,-0.06284 1e-005,-0.00353 0.00287,-0.00639 0.00639,-0.00639 0.00354,-1e-005 0.00639,0.00286 0.00639,0.00639 1e-005,0.02761 0.02247,0.05006 0.05007,0.05006 0.02761,0 0.05004,-0.02245 0.05004,-0.05006 1e-005,-0.0276 -0.02243,-0.05005 -0.05004,-0.05005 -0.00352,0 -0.00639,-0.00285 -0.00639,-0.00639 0,-0.00353 0.00287,-0.00639 0.00639,-0.00639 0.03465,0 0.06283,0.02819 0.06283,0.06283 0,0.03465 -0.02818,0.06284 -0.06283,0.06284l0 0z"/>
 </g>
</svg>
