<?xml version="1.0" standalone="no"?>
<svg contentScriptType="text/ecmascript" width="264" xmlns:xlink="http://www.w3.org/1999/xlink" baseProfile="full"
    zoomAndPan="magnify" contentStyleType="text/css" height="88" viewBox="0 0 264 88" preserveAspectRatio="xMidYMid meet"
    xmlns="http://www.w3.org/2000/svg" version="1.0">
    <title>default-skin 2</title>
    <g fill="none" fill-rule="evenodd">
        <g>
            <path fill="#000" d="M 111.785 65.03 L 110.0 63.5 l 3.0 -3.5 h -10.0 v -2.0 h 10.0 l -3.0 -3.5 l 1.785 
                -1.468 L 117.0 59.0 l -5.215 6.03 z"/>
            <path fill="#000" d="M 152.215 65.03 L 154.0 63.5 l -3.0 -3.5 h 10.0 v -2.0 h -10.0 l 3.0 -3.5 l -1.785 
                -1.468 L 147.0 59.0 l 5.215 6.03 z"/>
            <g>
                <path fill="#000" id="Rectangle-11" d="M 160.957 28.543 l -3.25 -3.25 l -1.413 1.414 l 3.25 3.25 z"/>
                <path stroke-width="1.5" d="M 152.5 27.0 c 3.038 0.0 5.5 -2.462 5.5 -5.5 s -2.462 -5.5 -5.5 -5.5 s -5.5 
                    2.462 -5.5 5.5 s 2.462 5.5 5.5 5.5 z" id="Oval-1" stroke="#000"/>
                <path fill="#000" d="M 150.0 21.0 h 5.0 v 1.0 h -5.0 z"/>
            </g>
            <g>
                <path fill="#000" d="M 72.957016 27.209663 l -1.414 1.414 l -3.25 -3.25 l 1.414 -1.414 l 3.25 3.25 z"/>
                <path d="M 64.5 25.666664 c 3.038 0.0 5.5 -2.462 5.5 -5.5 s -2.462 -5.5 -5.5 -5.5 s -5.5 2.462 -5.5 5.5 
                    s 2.462 5.5 5.5 5.5 z" stroke-width="1.5" stroke="#000"/>
            </g>
        </g>
    </g>
    <path d="M 15.0 70.74217 C 27.742157 57.999996 27.742157 57.999996 27.742157 57.999996 C 28.775951 59.057846 
        28.775951 59.057846 28.775951 59.057846 C 16.057838 71.80001 16.057838 71.80001 16.057838 71.80001 C 15.0 
        70.74217 15.0 70.74217 15.0 70.74217 C 15.0 70.74217 15.0 70.74217 15.0 70.74217 z M 27.742157 71.80001 C 15.0 
        59.057846 15.0 59.057846 15.0 59.057846 C 16.033792 57.999996 16.033792 57.999996 16.033792 57.999996 C 28.8 
        70.74217 28.8 70.74217 28.8 70.74217 C 27.742157 71.80001 27.742157 71.80001 27.742157 71.80001 C 27.742157 
        71.80001 27.742157 71.80001 27.742157 71.80001 z"/>
    <path d="M 69.940506 61.38321 C 69.26605 61.38321 68.65292 61.09708 68.223724 60.647446 C 62.848537 63.774452 
        62.848537 63.774452 62.848537 63.774452 C 62.868973 63.89707 62.88942 64.01971 62.88942 64.142334 C 62.88942 
        64.26496 62.868973 64.38759 62.848537 64.510216 C 68.223724 67.61679 68.223724 67.61679 68.223724 67.61679 C 
        68.65292 67.14671 69.26605 66.86058 69.940506 66.86058 C 71.207664 66.86058 72.25 67.902916 72.25 69.170074 C 
        72.25 70.437225 71.207664 71.5 69.940506 71.5 C 68.673355 71.5 67.61058 70.457664 67.61058 69.170074 C 67.61058 
        69.027 67.63103 68.88394 67.65146 68.740875 C 62.31715 65.675186 62.31715 65.675186 62.31715 65.675186 C 
        61.887955 66.145256 61.274815 66.45183 60.579926 66.45183 C 59.292336 66.45183 58.25 65.42993 58.25 64.142334 C 
        58.25 62.85475 59.292336 61.83285 60.579926 61.83285 C 61.254375 61.83285 61.887955 62.139416 62.31715 62.60949 
        C 67.65146 59.52336 67.65146 59.52336 67.65146 59.52336 C 67.63103 59.38029 67.61058 59.237225 67.61058 59.07372 
        C 67.61058 57.80657 68.65292 56.764236 69.940506 56.764236 C 71.2281 56.764236 72.25 57.80657 72.25 59.07372 C 
        72.25 60.340878 71.207664 61.38321 69.940506 61.38321 z"/>
    <g>
        <path d="M 22.623 17.059715 c -0.08042908 -0.06199932 -0.17342949 -0.10599995 -0.2814293 -0.13071346 c 
            -0.10585594 -0.024572372 -0.22057152 -0.037285805 -0.3412857 -0.037285805 c -0.12157059 0.0 -0.23600006 
            0.012713432 -0.34485626 0.037285805 c -0.108572006 0.024713516 -0.20314217 0.06871414 -0.28385735 0.13071346 
            c -0.07999992 0.062143326 -0.14328575 0.1445713 -0.19000053 0.24614334 c -0.046712875 0.10199928 -0.06928444 
            0.22914219 -0.06928444 0.38271427 c 0.0 0.14999962 0.023427963 0.27599907 0.06928444 0.3792858 c 0.046714783 
            0.10342789 0.10957146 0.18742752 0.19000053 0.24928474 c 0.08071518 0.062143326 0.17542839 0.10728645 
            0.28385735 0.13342857 c 0.10871315 0.026714325 0.22328568 0.040000916 0.34485626 0.040000916 c 0.12071419 
            0.0 0.23514366 -0.0135707855 0.3412857 -0.040000916 c 0.1079998 -0.02614212 0.20057297 -0.071998596 
            0.2814293 -0.13342857 c 0.07999992 -0.062000275 0.14471436 -0.1454277 0.19271469 -0.24928474 c 0.048000336 
            -0.10285759 0.071998596 -0.2292862 0.071998596 -0.3792858 c 0.0 -0.15328598 -0.02399826 -0.28128624 
            -0.071998596 -0.38271427 C 22.767714 17.204285 22.703 17.121716 22.623 17.059715 z"/>
        <rect x="21.181572" width="1.6312847" y="19.130287" height="5.9779987"/>
    </g>
    <path d="M 22.0 13.0 C 17.582 13.0 14.0 16.582 14.0 21.0 s 3.5820007 8.0 8.0 8.0 s 8.0 -3.5820007 8.0 -8.0 S 26.418 
        13.0 22.0 13.0 z M 22.0 27.666573 C 18.318142 27.666573 15.333286 24.681858 15.333286 21.0 C 15.333286 17.318 
        18.318142 14.333286 22.0 14.333286 S 28.666573 17.318 28.666573 21.0 C 28.666573 24.681858 25.681858 27.666573 
        22.0 27.666573 z"/>
</svg>