<?xml version="1.0" encoding="UTF-8"?>
<!DOCTYPE svg PUBLIC "-//W3C//DTD SVG 1.1//EN" "http://www.w3.org/Graphics/SVG/1.1/DTD/svg11.dtd">
<!-- Creator: CorelDRAW X7 -->
<svg xmlns="http://www.w3.org/2000/svg" xml:space="preserve" width="100%" height="100%" version="1.1" style="shape-rendering:geometricPrecision; text-rendering:geometricPrecision; image-rendering:optimizeQuality; fill-rule:evenodd; clip-rule:evenodd"
viewBox="0 0 3973 567"
 xmlns:xlink="http://www.w3.org/1999/xlink">
 <defs>
  <style type="text/css">
   <![CDATA[
    .fil0 {fill:#332C2B;fill-rule:nonzero}
    .fil1 {fill:#B39B77;fill-rule:nonzero}
   ]]>
  </style>
 </defs>
 <g id="图层_x0020_1">
  <metadata id="CorelCorpID_0Corel-Layer"/>
  <path class="fil0" d="M109 12l0 279 -105 0c-3,0 -4,1 -4,4 0,3 1,5 4,5l256 0 2 0 40 0c0,0 1,-1 1,-1 1,-1 2,-2 2,-4 0,-2 -14,-15 -41,-38 -3,-2 -5,-3 -7,-3 -2,0 -12,12 -31,37l-66 0 0 -147 77 0 2 0 38 0c0,0 0,0 1,0 1,-1 1,-2 2,-4 0,-2 -14,-13 -41,-34 -2,-2 -4,-3 -7,-3 -2,0 -12,11 -29,33l-43 0 0 -105c0,-2 2,-5 7,-8 8,-4 9,-9 3,-14 -2,-1 -6,-2 -12,-2l-41 -2c-4,0 -6,1 -7,2 -1,1 -1,2 -1,5zm533 -9c-2,1 -3,1 -3,2 0,1 0,2 1,3 8,8 14,21 18,40 1,8 4,14 8,18 5,5 11,7 19,6 6,-1 11,-4 17,-10 4,-4 6,-10 6,-18 0,-7 -2,-14 -7,-20 -4,-6 -12,-11 -24,-15 -11,-4 -23,-6 -35,-6zm-33 80c-2,0 -3,0 -3,1 0,1 0,2 1,3 8,9 13,24 15,44 1,8 3,14 7,19 4,5 10,8 18,7 6,0 12,-2 17,-8 5,-4 7,-10 8,-18 1,-7 -1,-13 -4,-20 -4,-7 -12,-13 -23,-19 -12,-5 -23,-8 -36,-9zm92 -12c-22,57 -42,104 -60,138 -3,5 -8,8 -16,8 -9,0 -14,0 -14,2 -1,0 0,1 2,2 9,4 14,9 17,14 3,10 4,20 2,33 -3,15 -2,26 4,33 5,6 12,10 21,11 8,1 16,-2 23,-9 6,-7 10,-15 10,-26 1,-13 -2,-24 -10,-35 -4,-5 -5,-13 -2,-24l18 -92c9,-5 18,-11 26,-16 -2,19 -5,36 -7,52l-19 0c-3,0 -4,2 -4,4 0,4 1,5 4,5l17 0c-6,39 -11,60 -15,64 -1,1 -1,2 -2,3 -2,2 -2,4 0,5l38 23c2,1 5,1 8,-3 5,-9 8,-14 9,-16l67 0c-3,7 -8,10 -15,11 -10,0 -23,0 -37,-1 -2,-1 -3,0 -4,2 0,1 1,2 3,3 19,9 29,24 30,46 0,2 0,3 1,4 3,4 15,3 34,-1 13,-3 22,-9 28,-17 7,-9 12,-25 16,-47l19 0 1 0 20 0c0,0 1,0 1,0 1,-4 -2,-10 -9,-17 -3,-4 -7,-9 -11,-14 -1,-1 -2,-2 -3,-2 -1,0 -2,1 -3,3 -4,7 -8,14 -12,22l-2 0c3,-19 6,-42 8,-68l13 0 1 0 18 0c1,0 1,0 1,-1 1,-3 -2,-8 -8,-18 -2,-4 -5,-8 -7,-12 -1,-1 -2,-2 -3,-2 -1,0 -6,6 -14,19 1,-26 4,-40 7,-42 0,-1 1,-2 2,-2 9,-6 9,-12 1,-19l-34 -25c0,-1 -2,-2 -3,-2 -1,0 -2,1 -3,2l-21 23 -57 0 0 0 -22 -9c7,-8 13,-16 20,-25l100 0 2 0 33 0c1,0 1,0 2,-1 0,0 1,-2 1,-3 0,-2 -12,-12 -37,-31 -2,-1 -4,-2 -6,-2 -2,0 -10,9 -24,28l-66 0c7,-13 13,-20 18,-22 3,-2 5,-4 6,-7 0,-4 -4,-6 -12,-8l-50 -9c-3,-1 -4,0 -6,0 0,1 -1,3 -1,6 -3,36 -15,70 -35,102l8 -39c0,-2 -1,-3 -2,-4 -2,0 -3,1 -4,3zm131 100c-3,34 -7,56 -11,68l-67 0c1,-5 5,-27 10,-68l68 0zm5 -70c-1,23 -2,43 -4,61l-67 0c2,-18 5,-38 8,-61l63 0zm-56 3c-1,0 -2,0 -2,1 -1,1 0,1 0,2 5,6 8,16 9,30 0,6 2,11 4,14 4,4 8,6 13,7 5,0 9,-2 14,-6 3,-3 5,-7 6,-13 1,-6 0,-11 -2,-15 -3,-5 -9,-10 -17,-14 -8,-3 -16,-6 -25,-6zm-6 72c-1,0 -2,0 -3,1 0,1 0,2 1,2 5,8 8,19 8,34 0,5 1,10 4,14 3,4 7,6 13,7 4,0 9,-2 13,-5 4,-3 6,-7 7,-13 1,-5 1,-10 -1,-15 -3,-6 -8,-11 -16,-15 -8,-5 -17,-8 -26,-10zm511 -84l168 0 2 0 33 0c1,0 1,0 2,0 1,-1 1,-2 1,-4 0,-1 -12,-12 -37,-31 -2,-1 -4,-2 -6,-2 -2,0 -10,10 -24,28l-132 0c9,-10 17,-23 25,-36l148 0 2 0 38 0c0,0 0,-1 1,-1 1,-1 1,-2 1,-4 0,-2 -13,-13 -40,-34 -2,-2 -5,-3 -7,-3 -2,0 -12,11 -29,33l-109 0c2,-7 6,-11 12,-14 3,-1 5,-4 6,-7 0,-3 -4,-6 -12,-7l-50 -10c-2,0 -4,0 -5,1 -1,0 -2,2 -2,6 -2,16 -7,35 -15,58 -8,27 -21,51 -39,73 -2,2 -2,4 -2,5 1,0 2,0 5,-1 23,-13 44,-30 65,-50zm-30 49l172 0c0,52 3,90 10,111 6,19 14,35 25,47 10,11 21,17 33,18 9,0 15,-2 20,-7 4,-5 7,-11 7,-17 0,-5 -2,-12 -7,-20 -2,-6 -4,-11 -4,-17 -1,-8 1,-25 6,-51 1,-3 0,-4 -2,-5 -1,0 -2,0 -3,2 -6,12 -12,23 -19,32 -2,2 -3,3 -5,4 -1,0 -2,-3 -4,-9 -4,-16 -6,-38 -5,-66 -1,-3 1,-5 3,-7 6,-2 10,-6 10,-11 0,-4 -3,-8 -9,-12l-29 -20c-2,-1 -4,-2 -6,-2 -2,0 -4,1 -5,3l-17 18 -171 0c-2,0 -4,1 -4,4 0,3 2,5 4,5zm589 58c43,-3 75,-9 97,-19 7,-4 14,-8 22,-12 -34,35 -71,58 -114,69 -2,0 -2,1 -2,3 0,1 2,2 6,1 59,-6 104,-21 135,-45 0,0 0,0 0,1 -40,42 -88,68 -143,81 -5,1 -7,2 -7,4 0,1 2,2 6,2 61,-5 111,-18 148,-41 0,13 -1,21 -4,25 -7,6 -25,8 -54,6 -3,0 -4,0 -4,2 0,1 1,2 3,3 20,4 32,15 36,32 1,5 5,6 11,4 15,-1 28,-6 41,-14 12,-10 19,-24 21,-42 2,-19 -1,-38 -9,-58 7,-2 14,-4 22,-6 0,26 3,47 9,62 5,15 15,30 30,45 3,3 5,4 7,3 1,0 3,-2 5,-7 9,-23 18,-36 28,-40 3,-1 4,-2 4,-4 1,-2 -1,-3 -4,-4 -18,-5 -35,-14 -50,-27 -10,-9 -18,-19 -22,-30 29,-11 46,-16 49,-15 4,0 7,-1 8,-3 1,-3 -1,-5 -6,-9l-29 -17c6,-1 10,-2 12,-4 2,-2 3,-4 3,-7l0 -39c0,-4 2,-7 5,-9 10,-5 10,-10 0,-16l-32 -19c-2,-2 -5,-2 -6,-2 -1,0 -3,0 -4,2l-16 16 -40 0c11,-5 19,-8 23,-11 3,-2 6,-4 11,-4 7,-1 10,-3 11,-7 0,-2 -2,-5 -6,-7l-32 -24c-2,-1 -3,-1 -4,-2 -1,0 -2,1 -4,2l-17 17 -32 0c2,-1 4,-2 6,-3 4,-1 6,-3 7,-6 0,-3 -3,-6 -11,-9l-47 -16c-3,-1 -5,-1 -6,-1 -1,1 -2,3 -3,6 -10,43 -32,81 -65,114 -3,1 -3,3 -3,4 1,1 2,1 5,0 11,-4 22,-8 32,-14l0 24c0,10 1,16 4,17 4,3 10,3 19,2 11,-1 18,-3 22,-6 3,-2 4,-6 5,-13l0 -2 24 0c-1,0 -1,0 -1,0 -21,29 -55,50 -101,62 -2,1 -3,1 -3,3 0,1 2,1 4,2zm204 -67l0 6c0,4 1,7 3,9 2,1 5,2 12,2 -9,14 -20,28 -34,42 -7,-13 -22,-27 -47,-40 3,-3 5,-7 9,-10 2,-3 4,-6 6,-9l51 0zm-98 -9l-29 0 0 -43 45 0c-4,17 -9,31 -16,43zm69 -43l29 0 0 43 -46 0c6,-12 12,-27 17,-43zm-32 -36c-2,6 -6,15 -12,27l-50 0c8,-8 15,-17 23,-27l39 0zm475 62l0 192c0,7 1,12 5,14 2,2 9,3 21,3 9,-1 16,-2 20,-3 3,-2 5,-6 5,-14l0 -192 14 0 1 0 15 0 0 73c0,8 2,13 4,15 3,2 9,2 20,2 12,-1 19,-2 21,-4 2,-2 3,-6 3,-13l0 -8 21 0 0 6c0,7 1,12 4,14 2,1 9,2 20,2 7,0 12,-1 16,-2l0 20 -119 0c-2,0 -4,1 -4,4 0,3 1,5 4,5l21 0c8,9 12,25 14,45 1,16 7,24 20,25 5,0 11,-2 16,-7 4,-3 6,-8 7,-15 1,-6 0,-12 -2,-17 -5,-14 -17,-24 -37,-31l80 0 0 33c0,3 0,5 -1,6 -3,1 -13,1 -32,0 -2,0 -3,0 -4,2 0,1 1,2 4,3 10,2 17,7 20,13 4,6 5,16 5,28 0,5 2,7 7,8 19,3 33,-1 42,-10 5,-5 8,-14 8,-29l0 -54 24 0 1 0 20 0c0,0 1,-1 1,-2 1,-3 -5,-14 -17,-32 0,0 -1,-1 -2,-1 1,-2 2,-3 2,-5l0 -73c0,-4 1,-8 4,-9 5,-2 7,-5 7,-8 0,-2 -2,-5 -6,-7l-31 -18c-2,-1 -4,-2 -5,-2 -2,0 -3,1 -5,2l-15 15 -19 0 0 -25 64 0 1 0 20 0c0,0 0,0 1,-1 1,-3 -5,-14 -17,-32 -1,-1 -2,-1 -3,-1 -1,0 -7,8 -18,26l-7 0c3,-3 5,-6 6,-11 1,-5 0,-9 -2,-13 -5,-9 -16,-15 -32,-16 -1,0 -2,1 -2,1 -1,1 -1,2 0,2 3,6 5,14 5,23 0,6 1,10 4,14l-20 0 0 -15c0,-4 1,-6 4,-8 5,-5 6,-9 1,-13 -1,-1 -4,-2 -9,-3l-40 -2c-1,-1 -2,0 -3,1 -1,1 -1,2 -1,4l0 36 -82 0c-3,0 -5,1 -5,4 0,3 2,4 5,4l82 0 0 25 -17 0 0 0 -47 -20c-2,-1 -3,-1 -4,0 0,1 -1,2 -1,3l0 34c-3,-5 -6,-11 -11,-18 -1,-1 -2,-1 -2,-2 -2,0 -6,7 -14,20l-3 0 0 -64c0,-3 1,-6 4,-8 6,-5 6,-9 2,-13 -2,-2 -5,-3 -10,-3l-42 -3c-2,-1 -3,0 -4,1 -1,1 -1,2 -1,4l0 86 -20 0c-3,0 -4,2 -5,5 0,3 2,4 5,4l20 0zm248 105l-9 0 0 -3c0,-3 1,-5 4,-6 4,-1 5,-3 5,-7 -1,-2 -1,-3 -2,-4 6,-1 11,-1 15,-2 -5,7 -9,14 -13,22zm-29 -40l0 8c0,3 0,5 1,7l-23 -2c0,-2 1,-4 1,-7l0 -6 21 0zm-69 -9l-21 0 0 -33 21 0 0 33zm48 -33l21 0 0 33 -21 0 0 -33zm-48 -9l-21 0 0 -31 21 0 0 31zm48 -31l21 0 0 31 -21 0 0 -31zm684 144c4,-32 5,-75 6,-129 0,-4 2,-7 6,-10 4,-3 6,-7 6,-11 -1,-3 -3,-6 -6,-8l-35 -24c-1,-1 -3,-1 -4,-1 -1,0 -2,0 -3,2l-19 23 -63 0c7,-12 14,-25 21,-39 2,-5 5,-8 10,-11 3,-1 5,-3 5,-6 0,-3 -4,-6 -12,-7l-47 -6c-2,-1 -4,0 -5,0 -1,1 -1,3 -2,6 0,22 -6,46 -16,73 -11,-13 -16,-19 -17,-19 -1,0 -2,1 -3,2 -5,8 -9,15 -13,23l-1 0 0 -60c-1,-4 1,-7 4,-9 5,-4 6,-9 1,-13 -2,-1 -5,-2 -9,-3l-43 -3c-1,0 -3,0 -4,1 -1,1 -1,3 -1,5l0 35 -36 -4c-2,-1 -3,0 -3,1 -1,1 -1,3 -1,6 1,46 -3,83 -13,111 -1,3 -1,4 0,5 1,1 3,0 5,-2 17,-24 29,-44 37,-61l11 0 0 71c-16,5 -30,9 -42,11 -4,0 -5,2 -4,5 12,41 19,62 23,64 1,0 3,0 4,-2 1,-1 3,-4 4,-9 0,-4 6,-9 15,-18l0 77c0,8 2,12 5,15 3,1 10,2 21,2 10,0 17,-1 21,-3 3,-2 4,-6 5,-14l0 -122c12,-13 26,-26 39,-39 2,-3 3,-5 2,-7 0,-1 -2,-1 -6,1 -12,6 -23,12 -35,18l0 -50 18 0 1 0 8 0c-6,13 -13,25 -21,37 -2,2 -2,3 -1,4 0,1 2,1 4,-1 22,-13 39,-27 53,-42 -11,46 -30,84 -57,112 -2,2 -2,3 -2,5 1,1 2,1 4,0 34,-19 59,-39 75,-58 12,-18 24,-43 35,-74l6 0c-13,54 -29,97 -49,131 -19,25 -38,47 -59,65 -2,1 -3,3 -2,4 1,2 2,2 4,0 38,-21 66,-39 82,-55 17,-15 32,-36 46,-61 0,0 0,-1 0,-1 -4,52 -8,81 -13,88 -3,5 -18,7 -45,7 -2,-1 -3,0 -3,1 0,2 1,3 3,4 18,9 27,24 28,45 0,2 0,3 1,4 0,1 1,1 2,2 28,0 48,-8 58,-23 8,-12 13,-33 16,-61zm-244 -161l0 19 -7 0c2,-6 5,-12 7,-19zm701 46l0 178c0,8 1,13 4,15 2,2 9,3 20,3 12,-1 19,-2 22,-5 2,-1 3,-6 3,-13l0 -8 47 0 0 11c0,4 2,7 4,9 2,2 10,3 22,2 10,0 17,-1 20,-4 2,-1 3,-3 3,-6l0 -61c0,-4 2,-7 5,-9 4,-2 6,-5 6,-8 0,-2 -2,-4 -6,-7l-31 -18c-2,-1 -4,-2 -5,-2 -2,0 -3,1 -4,2l-15 15 -46 0 0 -36 40 0 0 5c0,4 1,7 3,9 3,2 10,3 22,2 11,0 17,-1 20,-4 2,-1 4,-4 4,-7l0 -49c0,-4 1,-7 4,-9 4,-2 7,-4 7,-8 0,-2 -2,-4 -7,-7l-30 -18c0,0 -1,0 -1,0 9,-6 20,-8 33,-5 10,1 18,1 23,0 2,-3 4,-6 4,-11 0,-5 -2,-10 -8,-14l-28 -22c-1,-1 -3,-2 -4,-2 -1,0 -2,1 -3,2l-16 17 -27 0c0,0 1,-1 1,-1 5,-7 7,-15 7,-24 -2,-6 -5,-11 -11,-16 -12,-9 -28,-12 -48,-11 -2,0 -3,1 -4,2 0,1 1,2 2,4 7,6 10,17 10,32 0,5 2,10 6,14l-32 0c-3,-7 -6,-13 -11,-17 -2,-1 -3,-1 -3,-1 -1,1 -2,2 -1,4 2,7 2,13 -1,19 -3,4 -7,9 -13,14l-24 -26c-1,-1 -2,-2 -3,-2 -1,0 -3,0 -4,2l-20 19 -22 0c6,-14 11,-27 14,-39 1,-2 3,-4 6,-6 4,-1 6,-3 6,-5 0,-3 -3,-6 -8,-7l-46 -9c-1,0 -2,0 -3,1 -1,1 -2,3 -2,5 0,58 -6,103 -19,134 -1,2 -2,4 -3,6 -2,2 -2,4 0,4 0,1 2,1 4,-1 18,-20 34,-45 48,-74l26 0c-3,14 -7,27 -13,40l-27 -1c-3,-1 -5,0 -6,1 -1,1 -1,3 -1,5l0 67 0 21 0 29c0,2 0,5 -1,8 0,3 -1,5 -3,6 -4,1 -5,4 -3,7 7,13 14,27 21,41 2,5 4,6 5,4 41,-44 69,-79 85,-105 1,-3 2,-5 1,-6 -1,-2 -3,-1 -6,0 -15,11 -32,21 -49,29l0 -13 0 -21 0 -48c0,-3 2,-5 7,-8 4,-2 6,-5 6,-8 0,-2 -1,-4 -3,-5 -2,-2 -6,-2 -11,-2 10,-7 20,-15 30,-22 0,5 1,9 3,13 3,6 8,9 15,10 4,1 9,1 13,0zm111 -54c-5,14 -9,24 -13,30l-11 11 -33 0 0 0 -33 -13c1,-9 1,-18 -2,-28l92 0zm-62 157l47 0 0 58 -47 0 0 -58zm0 -107l40 0 0 53 -40 0 0 -53z"/>
  <path class="fil1" d="M13 522l26 -3c1,9 4,15 9,19 5,5 11,7 19,7 9,0 15,-2 19,-6 5,-3 7,-8 7,-12 0,-4 -1,-6 -3,-8 -2,-3 -5,-4 -9,-6 -3,-1 -10,-3 -21,-6 -15,-3 -24,-8 -30,-13 -8,-7 -12,-16 -12,-26 0,-7 2,-13 6,-19 3,-5 9,-10 16,-13 7,-3 15,-4 26,-4 16,0 28,3 37,10 8,8 12,17 13,29l-27 1c-1,-6 -3,-11 -7,-14 -4,-3 -9,-4 -17,-4 -7,0 -13,1 -18,4 -3,2 -4,5 -4,8 0,3 1,6 4,8 3,3 11,6 24,9 13,3 23,6 29,9 6,4 11,8 14,14 4,5 5,12 5,20 0,8 -2,15 -6,21 -4,7 -10,12 -18,15 -7,3 -17,5 -28,5 -16,0 -29,-4 -38,-12 -9,-7 -14,-18 -16,-33zm139 42l0 -130 26 0 0 51 52 0 0 -51 26 0 0 130 -26 0 0 -57 -52 0 0 57 -26 0zm259 0l-28 0 -12 -29 -52 0 -11 29 -28 0 51 -130 28 0 52 130zm-48 -51l-18 -49 -18 49 36 0zm73 51l0 -130 25 0 54 87 0 -87 24 0 0 130 -26 0 -53 -85 0 85 -24 0zm202 -48l0 -22 57 0 0 52c-6,6 -14,11 -24,15 -11,4 -21,6 -32,6 -14,0 -26,-3 -36,-9 -10,-6 -17,-14 -23,-24 -5,-11 -7,-23 -7,-35 0,-14 3,-26 8,-37 6,-10 14,-18 25,-24 9,-4 19,-6 32,-6 16,0 29,3 38,10 9,7 15,16 17,28l-26 5c-2,-6 -5,-12 -10,-15 -5,-4 -12,-6 -19,-6 -12,0 -21,4 -28,11 -7,7 -10,18 -10,33 0,15 3,27 10,35 7,7 16,11 27,11 6,0 11,-1 17,-3 6,-2 10,-5 14,-8l0 -17 -30 0zm91 48l0 -130 27 0 0 51 51 0 0 -51 27 0 0 130 -27 0 0 -57 -51 0 0 57 -27 0zm260 0l-29 0 -11 -29 -52 0 -11 29 -28 0 51 -130 28 0 52 130zm-49 -51l-18 -49 -17 49 35 0zm72 51l0 -130 27 0 0 130 -27 0zm143 0l0 -130 39 0 24 89 23 -89 40 0 0 130 -25 0 0 -102 -26 102 -25 0 -26 -102 0 102 -24 0zm162 0l0 -130 97 0 0 22 -70 0 0 29 65 0 0 22 -65 0 0 35 72 0 0 22 -99 0zm161 0l0 -108 -38 0 0 -22 103 0 0 22 -38 0 0 108 -27 0zm93 0l0 -130 96 0 0 22 -70 0 0 29 66 0 0 22 -66 0 0 35 73 0 0 22 -99 0zm126 -64c0,-13 2,-24 6,-34 3,-6 7,-12 12,-17 5,-6 11,-10 17,-12 8,-4 18,-5 28,-5 19,0 35,6 46,18 12,11 18,28 18,49 0,21 -6,38 -17,50 -12,12 -27,18 -46,18 -20,0 -35,-6 -47,-18 -11,-12 -17,-28 -17,-49zm27 -1c0,15 4,26 10,34 7,7 16,11 26,11 11,0 20,-4 26,-11 7,-8 10,-19 10,-34 0,-15 -3,-26 -9,-34 -7,-7 -16,-11 -27,-11 -10,0 -19,4 -26,11 -6,8 -10,19 -10,34zm131 65l0 -130 55 0c14,0 24,1 30,3 7,3 12,7 16,13 3,6 5,13 5,20 0,10 -3,18 -8,25 -6,6 -15,10 -26,12 6,3 10,7 14,11 4,4 9,11 15,21l16 25 -32 0 -19 -28c-6,-10 -11,-16 -14,-19 -2,-3 -5,-5 -7,-6 -3,-1 -8,-1 -14,-1l-5 0 0 54 -26 0zm26 -75l19 0c13,0 21,0 24,-1 3,-2 6,-3 8,-6 1,-3 2,-6 2,-10 0,-4 -1,-8 -3,-10 -3,-3 -6,-5 -10,-6 -2,0 -9,0 -20,0l-20 0 0 33zm110 11c0,-13 2,-24 6,-34 3,-6 7,-12 12,-17 5,-6 11,-10 17,-12 8,-4 18,-5 28,-5 19,0 35,6 46,18 12,11 18,28 18,49 0,21 -6,38 -18,50 -11,12 -26,18 -45,18 -20,0 -35,-6 -47,-18 -11,-12 -17,-28 -17,-49zm27 -1c0,15 4,26 10,34 7,7 16,11 26,11 11,0 20,-4 26,-11 7,-8 10,-19 10,-34 0,-15 -3,-26 -9,-34 -7,-7 -16,-11 -27,-11 -10,0 -19,4 -26,11 -6,8 -10,19 -10,34zm131 65l0 -129 26 0 0 107 66 0 0 22 -92 0zm116 -64c0,-13 2,-24 6,-34 3,-6 7,-12 12,-17 5,-6 11,-10 17,-12 8,-4 17,-5 28,-5 19,0 34,6 46,18 12,11 17,28 17,49 0,21 -5,38 -17,50 -11,12 -27,18 -46,18 -19,0 -35,-6 -46,-18 -12,-12 -17,-28 -17,-49zm27 -1c0,15 3,26 10,34 7,7 16,11 26,11 11,0 19,-4 26,-11 7,-8 10,-19 10,-34 0,-15 -3,-26 -10,-34 -6,-7 -15,-11 -26,-11 -11,0 -20,4 -26,11 -7,8 -10,19 -10,34zm191 17l0 -22 57 0 0 52c-6,6 -14,11 -24,15 -11,4 -21,6 -32,6 -14,0 -26,-3 -36,-9 -10,-6 -18,-14 -23,-24 -5,-11 -8,-23 -8,-35 0,-14 3,-26 9,-37 6,-10 14,-18 25,-24 8,-4 19,-6 31,-6 17,0 29,3 38,10 9,7 15,16 18,28l-26 5c-2,-6 -6,-12 -11,-15 -5,-4 -11,-6 -19,-6 -11,0 -20,4 -27,11 -7,7 -10,18 -10,33 0,15 3,27 10,35 7,7 16,11 27,11 6,0 11,-1 17,-3 5,-2 10,-5 14,-8l0 -17 -30 0zm90 48l0 -130 27 0 0 130 -27 0zm145 -48l26 9c-4,14 -10,24 -20,31 -9,7 -20,11 -34,11 -18,0 -32,-6 -43,-18 -11,-12 -17,-28 -17,-49 0,-21 6,-38 17,-50 11,-12 26,-18 44,-18 16,0 29,4 39,14 6,5 11,13 14,24l-26 6c-2,-7 -5,-12 -10,-16 -5,-4 -11,-6 -18,-6 -10,0 -17,4 -24,11 -6,7 -9,18 -9,33 0,17 3,29 9,36 6,7 14,10 24,10 7,0 13,-2 18,-7 5,-4 8,-11 10,-21zm177 48l-29 0 -12 -29 -52 0 -11 29 -27 0 50 -130 28 0 53 130zm-49 -51l-18 -49 -18 49 36 0zm73 51l0 -129 27 0 0 107 65 0 0 22 -92 0zm202 0l0 -130 39 0 24 89 24 -89 39 0 0 130 -24 0 0 -102 -26 102 -26 0 -26 -102 0 102 -24 0zm162 -130l27 0 0 71c0,11 0,18 1,21 1,6 3,10 8,13 4,4 10,5 17,5 8,0 13,-1 17,-4 4,-3 6,-7 7,-12 1,-4 1,-12 1,-22l0 -72 26 0 0 68c0,16 0,27 -2,34 -1,6 -4,12 -8,16 -3,5 -9,8 -15,11 -6,2 -15,4 -25,4 -13,0 -22,-2 -28,-5 -7,-3 -12,-6 -16,-11 -3,-4 -6,-9 -7,-14 -2,-8 -3,-19 -3,-33l0 -70zm136 88l25 -3c2,9 5,15 10,19 4,5 11,7 19,7 8,0 15,-2 19,-6 4,-3 6,-8 6,-12 0,-4 0,-6 -2,-8 -2,-3 -5,-4 -10,-6 -3,-1 -10,-3 -21,-6 -14,-3 -24,-8 -30,-13 -8,-7 -12,-16 -12,-26 0,-7 2,-13 6,-19 4,-5 9,-10 16,-13 7,-3 16,-4 26,-4 16,0 29,3 37,10 8,8 13,17 13,29l-26 1c-1,-6 -4,-11 -8,-14 -3,-3 -9,-4 -16,-4 -8,0 -14,1 -18,4 -3,2 -4,5 -4,8 0,3 1,6 4,8 3,3 11,6 24,9 13,3 22,6 28,9 6,4 11,8 15,14 3,5 5,12 5,20 0,8 -2,15 -6,21 -5,7 -10,12 -18,15 -8,3 -17,5 -28,5 -17,0 -30,-4 -38,-12 -9,-7 -15,-18 -16,-33zm138 42l0 -130 97 0 0 22 -70 0 0 29 65 0 0 22 -65 0 0 35 73 0 0 22 -100 0zm132 -130l26 0 0 71c0,11 1,18 1,21 1,6 4,10 8,13 4,4 10,5 18,5 7,0 13,-1 17,-4 3,-3 6,-7 6,-12 1,-4 2,-12 2,-22l0 -72 26 0 0 68c0,16 -1,27 -2,34 -2,6 -4,12 -8,16 -4,5 -9,8 -15,11 -7,2 -15,4 -26,4 -12,0 -21,-2 -28,-5 -6,-3 -11,-6 -15,-11 -4,-4 -6,-9 -8,-14 -1,-8 -2,-19 -2,-33l0 -70zm142 130l0 -130 39 0 24 89 23 -89 40 0 0 130 -25 0 0 -102 -26 102 -25 0 -26 -102 0 102 -24 0z"/>
 </g>
</svg>
